G04 #@! TF.FileFunction,Copper,L1,Top,Signal*
%FSLAX46Y46*%
G04 Gerber Fmt 4.6, Leading zero omitted, Abs format (unit mm)*
G04 Created by KiCad (PCBNEW 4.0.0-rc2-1-stable) date Wednesday, February 17, 2016 'pmt' 06:13:41 pm*
%MOMM*%
G01*
G04 APERTURE LIST*
%ADD10C,0.150000*%
%ADD11R,1.000000X1.600000*%
%ADD12R,0.900000X1.700000*%
%ADD13R,1.600000X1.000000*%
%ADD14R,1.143000X0.508000*%
%ADD15R,1.700000X0.900000*%
%ADD16C,2.400000*%
%ADD17C,2.500000*%
%ADD18C,1.900000*%
%ADD19C,4.064000*%
%ADD20C,0.762000*%
%ADD21C,0.254000*%
G04 APERTURE END LIST*
D10*
D11*
X17486500Y-24257000D03*
X20486500Y-24257000D03*
D12*
X20436500Y-38862000D03*
X17536500Y-38862000D03*
X20436500Y-36322000D03*
X17536500Y-36322000D03*
X20436500Y-29337000D03*
X17536500Y-29337000D03*
D11*
X20486500Y-33782000D03*
X17486500Y-33782000D03*
X20486500Y-26797000D03*
X17486500Y-26797000D03*
X31281500Y-26797000D03*
X28281500Y-26797000D03*
D13*
X33591500Y-24027000D03*
X33591500Y-27027000D03*
D11*
X30186500Y-40132000D03*
X33186500Y-40132000D03*
X25741500Y-40132000D03*
X28741500Y-40132000D03*
D14*
X23939500Y-29972000D03*
X23939500Y-31242000D03*
X23939500Y-32512000D03*
X23939500Y-33782000D03*
X23939500Y-35052000D03*
X23939500Y-36322000D03*
X23939500Y-37592000D03*
X30289500Y-37592000D03*
X30289500Y-36322000D03*
X30289500Y-33782000D03*
X30289500Y-32512000D03*
X30289500Y-31242000D03*
X30289500Y-29972000D03*
X30289500Y-35052000D03*
D12*
X28331500Y-24257000D03*
X31231500Y-24257000D03*
D15*
X32956500Y-32967000D03*
X32956500Y-35867000D03*
X24066500Y-27612000D03*
X24066500Y-24712000D03*
X33591500Y-28522000D03*
X33591500Y-31422000D03*
D16*
X25971500Y-18542000D03*
D17*
X23431500Y-16002000D03*
X28511500Y-16002000D03*
X28511500Y-21082000D03*
X23431500Y-21082000D03*
D18*
X33591500Y-74422000D03*
X33591500Y-71882000D03*
X33591500Y-69342000D03*
X33591500Y-66802000D03*
X33591500Y-64262000D03*
X33591500Y-61722000D03*
X33591500Y-59182000D03*
X33591500Y-56642000D03*
X33591500Y-54102000D03*
X33591500Y-51562000D03*
X33591500Y-49022000D03*
X33591500Y-46482000D03*
X33591500Y-43942000D03*
X18351500Y-43942000D03*
X18351500Y-46482000D03*
X18351500Y-49022000D03*
X18351500Y-51562000D03*
X18351500Y-54102000D03*
X18351500Y-56642000D03*
X18351500Y-59182000D03*
X18351500Y-61722000D03*
X18351500Y-64262000D03*
X18351500Y-66802000D03*
X18351500Y-69342000D03*
X18351500Y-71882000D03*
X18351500Y-74422000D03*
X18351500Y-76962000D03*
X33591500Y-76962000D03*
D19*
X26035000Y-54610000D03*
X26035000Y-72390000D03*
D20*
X29781500Y-48387000D03*
X32321500Y-34417000D03*
X31813500Y-31305500D03*
X21717000Y-31750000D03*
X22161500Y-32956500D03*
X22034500Y-38290500D03*
D21*
X23939500Y-31242000D02*
X22923500Y-31242000D01*
X18224500Y-30734000D02*
X17536500Y-30046000D01*
X22415500Y-30734000D02*
X18224500Y-30734000D01*
X22923500Y-31242000D02*
X22415500Y-30734000D01*
X17536500Y-30046000D02*
X17536500Y-29337000D01*
X17536500Y-29337000D02*
X17536500Y-30173000D01*
X17486500Y-24257000D02*
X17486500Y-26797000D01*
X17536500Y-29337000D02*
X17536500Y-26847000D01*
X17536500Y-26847000D02*
X17486500Y-26797000D01*
X17536500Y-26847000D02*
X17486500Y-26797000D01*
X17536500Y-27482000D02*
X17486500Y-27432000D01*
X20486500Y-24257000D02*
X20486500Y-20153500D01*
X22098000Y-18542000D02*
X25971500Y-18542000D01*
X20486500Y-20153500D02*
X22098000Y-18542000D01*
X20436500Y-36322000D02*
X20436500Y-36650000D01*
X20436500Y-36650000D02*
X18224500Y-38862000D01*
X18224500Y-38862000D02*
X17536500Y-38862000D01*
X20486500Y-33782000D02*
X21526500Y-33782000D01*
X22796500Y-35052000D02*
X23939500Y-35052000D01*
X21526500Y-33782000D02*
X22796500Y-35052000D01*
X20486500Y-33782000D02*
X20486500Y-36272000D01*
X20486500Y-36272000D02*
X20436500Y-36322000D01*
X20436500Y-36322000D02*
X20076500Y-36322000D01*
X30289500Y-33782000D02*
X31686500Y-33782000D01*
X31686500Y-33782000D02*
X32321500Y-34417000D01*
X16446500Y-40957500D02*
X16446500Y-77216000D01*
X32067500Y-78486000D02*
X33591500Y-76962000D01*
X17716500Y-78486000D02*
X32067500Y-78486000D01*
X16446500Y-77216000D02*
X17716500Y-78486000D01*
X17536500Y-36322000D02*
X17272000Y-36322000D01*
X17272000Y-36322000D02*
X16446500Y-37147500D01*
X24408000Y-41465500D02*
X25741500Y-40132000D01*
X16954500Y-41465500D02*
X24408000Y-41465500D01*
X16446500Y-40957500D02*
X16954500Y-41465500D01*
X16446500Y-37147500D02*
X16446500Y-40957500D01*
X23431500Y-21082000D02*
X28511500Y-21082000D01*
X23431500Y-16002000D02*
X28511500Y-16002000D01*
X28511500Y-21082000D02*
X28511500Y-16002000D01*
X28511500Y-21082000D02*
X31686500Y-21082000D01*
X33591500Y-22987000D02*
X33591500Y-24027000D01*
X31686500Y-21082000D02*
X33591500Y-22987000D01*
X17536500Y-36322000D02*
X17536500Y-33832000D01*
X17536500Y-33832000D02*
X17486500Y-33782000D01*
X23939500Y-29972000D02*
X24701500Y-29972000D01*
X22098000Y-46482000D02*
X18351500Y-46482000D01*
X27241500Y-41338500D02*
X22098000Y-46482000D01*
X27241500Y-32512000D02*
X27241500Y-41338500D01*
X24701500Y-29972000D02*
X27241500Y-32512000D01*
X20436500Y-29337000D02*
X23304500Y-29337000D01*
X23304500Y-29337000D02*
X23939500Y-29972000D01*
X20486500Y-26797000D02*
X20486500Y-29287000D01*
X20486500Y-29287000D02*
X20436500Y-29337000D01*
X20436500Y-26847000D02*
X20486500Y-26797000D01*
X24066500Y-27612000D02*
X24066500Y-29845000D01*
X24066500Y-29845000D02*
X23939500Y-29972000D01*
X20486500Y-29922000D02*
X20436500Y-29972000D01*
X28741500Y-40132000D02*
X28741500Y-42886500D01*
X22606000Y-49022000D02*
X18351500Y-49022000D01*
X28741500Y-42886500D02*
X22606000Y-49022000D01*
X30289500Y-37592000D02*
X30289500Y-40029000D01*
X30289500Y-40029000D02*
X30186500Y-40132000D01*
X28741500Y-40132000D02*
X30186500Y-40132000D01*
X32956500Y-35867000D02*
X30744500Y-35867000D01*
X30744500Y-35867000D02*
X30289500Y-36322000D01*
X30289500Y-37592000D02*
X30289500Y-36322000D01*
X24066500Y-24712000D02*
X27876500Y-24712000D01*
X27876500Y-24712000D02*
X28331500Y-24257000D01*
X28331500Y-24257000D02*
X28331500Y-26747000D01*
X28331500Y-26747000D02*
X28281500Y-26797000D01*
X32766000Y-42037000D02*
X32258000Y-42037000D01*
X33655000Y-42037000D02*
X32766000Y-42037000D01*
X35179000Y-40513000D02*
X33655000Y-42037000D01*
X35179000Y-30099000D02*
X35179000Y-40513000D01*
X33602000Y-28522000D02*
X35179000Y-30099000D01*
X22733000Y-51562000D02*
X18351500Y-51562000D01*
X32258000Y-42037000D02*
X22733000Y-51562000D01*
X33591500Y-28522000D02*
X33602000Y-28522000D01*
X33591500Y-27027000D02*
X33591500Y-28522000D01*
X30289500Y-31242000D02*
X30289500Y-29972000D01*
X33591500Y-27027000D02*
X31511500Y-27027000D01*
X31511500Y-27027000D02*
X31281500Y-26797000D01*
X31281500Y-26797000D02*
X31281500Y-28980000D01*
X31281500Y-28980000D02*
X30289500Y-29972000D01*
X31281500Y-26797000D02*
X31281500Y-24307000D01*
X31281500Y-24307000D02*
X31231500Y-24257000D01*
X33186500Y-40132000D02*
X33186500Y-39267000D01*
X34480500Y-34491000D02*
X32956500Y-32967000D01*
X34480500Y-37973000D02*
X34480500Y-34491000D01*
X33186500Y-39267000D02*
X34480500Y-37973000D01*
X32956500Y-32967000D02*
X32956500Y-33147000D01*
X32956500Y-32967000D02*
X32956500Y-32057000D01*
X32956500Y-32057000D02*
X33591500Y-31422000D01*
X31115000Y-32512000D02*
X31813500Y-31813500D01*
X31813500Y-31813500D02*
X31813500Y-31305500D01*
X30289500Y-32512000D02*
X31115000Y-32512000D01*
X23114000Y-32512000D02*
X22352000Y-31750000D01*
X22352000Y-31750000D02*
X21717000Y-31750000D01*
X23114000Y-32512000D02*
X23939500Y-32512000D01*
X30289500Y-32512000D02*
X29781500Y-32512000D01*
X29781500Y-32512000D02*
X29146500Y-33147000D01*
X29146500Y-33147000D02*
X29146500Y-34417000D01*
X29146500Y-34417000D02*
X29781500Y-35052000D01*
X29781500Y-35052000D02*
X30289500Y-35052000D01*
X23939500Y-32512000D02*
X24701500Y-32512000D01*
X24701500Y-32512000D02*
X25336500Y-33147000D01*
X25336500Y-33147000D02*
X25336500Y-35687000D01*
X25336500Y-35687000D02*
X24701500Y-36322000D01*
X24701500Y-36322000D02*
X23939500Y-36322000D01*
X23939500Y-36322000D02*
X23939500Y-37592000D01*
X20436500Y-38862000D02*
X21463000Y-38862000D01*
X22987000Y-33782000D02*
X22161500Y-32956500D01*
X22987000Y-33782000D02*
X23939500Y-33782000D01*
X21463000Y-38862000D02*
X22034500Y-38290500D01*
X23939500Y-33782000D02*
X23431500Y-33782000D01*
G36*
X35306000Y-78041500D02*
X34793924Y-78041500D01*
X34822266Y-78013158D01*
X34707852Y-77898744D01*
X34969519Y-77806208D01*
X35187688Y-77214602D01*
X35162852Y-76584539D01*
X34969519Y-76117792D01*
X34707850Y-76025255D01*
X33771105Y-76962000D01*
X33785248Y-76976143D01*
X33605643Y-77155748D01*
X33591500Y-77141605D01*
X33577358Y-77155748D01*
X33397753Y-76976143D01*
X33411895Y-76962000D01*
X32475150Y-76025255D01*
X32213481Y-76117792D01*
X31995312Y-76709398D01*
X32020148Y-77339461D01*
X32213481Y-77806208D01*
X32475148Y-77898744D01*
X32360734Y-78013158D01*
X32389076Y-78041500D01*
X19513601Y-78041500D01*
X19694414Y-77861003D01*
X19936224Y-77278659D01*
X19936775Y-76648107D01*
X19695981Y-76065343D01*
X19323029Y-75691739D01*
X19694414Y-75321003D01*
X19936224Y-74738659D01*
X19936775Y-74108107D01*
X19695981Y-73525343D01*
X19323029Y-73151739D01*
X19694414Y-72781003D01*
X19936224Y-72198659D01*
X19936775Y-71568107D01*
X19695981Y-70985343D01*
X19323029Y-70611739D01*
X19694414Y-70241003D01*
X19936224Y-69658659D01*
X19936775Y-69028107D01*
X19695981Y-68445343D01*
X19323029Y-68071739D01*
X19694414Y-67701003D01*
X19936224Y-67118659D01*
X19936775Y-66488107D01*
X19695981Y-65905343D01*
X19323029Y-65531739D01*
X19694414Y-65161003D01*
X19936224Y-64578659D01*
X19936775Y-63948107D01*
X19695981Y-63365343D01*
X19323029Y-62991739D01*
X19694414Y-62621003D01*
X19936224Y-62038659D01*
X19936775Y-61408107D01*
X19695981Y-60825343D01*
X19323029Y-60451739D01*
X19694414Y-60081003D01*
X19936224Y-59498659D01*
X19936775Y-58868107D01*
X19695981Y-58285343D01*
X19323029Y-57911739D01*
X19694414Y-57541003D01*
X19936224Y-56958659D01*
X19936775Y-56328107D01*
X19695981Y-55745343D01*
X19323029Y-55371739D01*
X19694414Y-55001003D01*
X19936224Y-54418659D01*
X19936775Y-53788107D01*
X19695981Y-53205343D01*
X19323029Y-52831739D01*
X19694414Y-52461003D01*
X19751303Y-52324000D01*
X22733000Y-52324000D01*
X23024605Y-52265996D01*
X23271815Y-52100815D01*
X32191035Y-43181595D01*
X32006776Y-43625341D01*
X32006225Y-44255893D01*
X32247019Y-44838657D01*
X32619971Y-45212261D01*
X32248586Y-45582997D01*
X32006776Y-46165341D01*
X32006225Y-46795893D01*
X32247019Y-47378657D01*
X32619971Y-47752261D01*
X32248586Y-48122997D01*
X32006776Y-48705341D01*
X32006225Y-49335893D01*
X32247019Y-49918657D01*
X32619971Y-50292261D01*
X32248586Y-50662997D01*
X32006776Y-51245341D01*
X32006225Y-51875893D01*
X32247019Y-52458657D01*
X32619971Y-52832261D01*
X32248586Y-53202997D01*
X32006776Y-53785341D01*
X32006225Y-54415893D01*
X32247019Y-54998657D01*
X32619971Y-55372261D01*
X32248586Y-55742997D01*
X32006776Y-56325341D01*
X32006225Y-56955893D01*
X32247019Y-57538657D01*
X32619971Y-57912261D01*
X32248586Y-58282997D01*
X32006776Y-58865341D01*
X32006225Y-59495893D01*
X32247019Y-60078657D01*
X32619971Y-60452261D01*
X32248586Y-60822997D01*
X32006776Y-61405341D01*
X32006225Y-62035893D01*
X32247019Y-62618657D01*
X32619971Y-62992261D01*
X32248586Y-63362997D01*
X32006776Y-63945341D01*
X32006225Y-64575893D01*
X32247019Y-65158657D01*
X32619971Y-65532261D01*
X32248586Y-65902997D01*
X32006776Y-66485341D01*
X32006225Y-67115893D01*
X32247019Y-67698657D01*
X32619971Y-68072261D01*
X32248586Y-68442997D01*
X32006776Y-69025341D01*
X32006225Y-69655893D01*
X32247019Y-70238657D01*
X32619971Y-70612261D01*
X32248586Y-70982997D01*
X32006776Y-71565341D01*
X32006225Y-72195893D01*
X32247019Y-72778657D01*
X32619971Y-73152261D01*
X32248586Y-73522997D01*
X32006776Y-74105341D01*
X32006225Y-74735893D01*
X32247019Y-75318657D01*
X32685711Y-75758116D01*
X32654755Y-75845650D01*
X33591500Y-76782395D01*
X34528245Y-75845650D01*
X34497093Y-75757561D01*
X34934414Y-75321003D01*
X35176224Y-74738659D01*
X35176775Y-74108107D01*
X34935981Y-73525343D01*
X34563029Y-73151739D01*
X34934414Y-72781003D01*
X35176224Y-72198659D01*
X35176775Y-71568107D01*
X34935981Y-70985343D01*
X34563029Y-70611739D01*
X34934414Y-70241003D01*
X35176224Y-69658659D01*
X35176775Y-69028107D01*
X34935981Y-68445343D01*
X34563029Y-68071739D01*
X34934414Y-67701003D01*
X35176224Y-67118659D01*
X35176775Y-66488107D01*
X34935981Y-65905343D01*
X34563029Y-65531739D01*
X34934414Y-65161003D01*
X35176224Y-64578659D01*
X35176775Y-63948107D01*
X34935981Y-63365343D01*
X34563029Y-62991739D01*
X34934414Y-62621003D01*
X35176224Y-62038659D01*
X35176775Y-61408107D01*
X34935981Y-60825343D01*
X34563029Y-60451739D01*
X34934414Y-60081003D01*
X35176224Y-59498659D01*
X35176775Y-58868107D01*
X34935981Y-58285343D01*
X34563029Y-57911739D01*
X34934414Y-57541003D01*
X35176224Y-56958659D01*
X35176775Y-56328107D01*
X34935981Y-55745343D01*
X34563029Y-55371739D01*
X34934414Y-55001003D01*
X35176224Y-54418659D01*
X35176775Y-53788107D01*
X34935981Y-53205343D01*
X34563029Y-52831739D01*
X34934414Y-52461003D01*
X35176224Y-51878659D01*
X35176775Y-51248107D01*
X34935981Y-50665343D01*
X34563029Y-50291739D01*
X34934414Y-49921003D01*
X35176224Y-49338659D01*
X35176775Y-48708107D01*
X34935981Y-48125343D01*
X34563029Y-47751739D01*
X34934414Y-47381003D01*
X35176224Y-46798659D01*
X35176775Y-46168107D01*
X34935981Y-45585343D01*
X34563029Y-45211739D01*
X34934414Y-44841003D01*
X35176224Y-44258659D01*
X35176775Y-43628107D01*
X34935981Y-43045343D01*
X34490503Y-42599086D01*
X34264421Y-42505209D01*
X35306000Y-41463631D01*
X35306000Y-78041500D01*
X35306000Y-78041500D01*
G37*
X35306000Y-78041500D02*
X34793924Y-78041500D01*
X34822266Y-78013158D01*
X34707852Y-77898744D01*
X34969519Y-77806208D01*
X35187688Y-77214602D01*
X35162852Y-76584539D01*
X34969519Y-76117792D01*
X34707850Y-76025255D01*
X33771105Y-76962000D01*
X33785248Y-76976143D01*
X33605643Y-77155748D01*
X33591500Y-77141605D01*
X33577358Y-77155748D01*
X33397753Y-76976143D01*
X33411895Y-76962000D01*
X32475150Y-76025255D01*
X32213481Y-76117792D01*
X31995312Y-76709398D01*
X32020148Y-77339461D01*
X32213481Y-77806208D01*
X32475148Y-77898744D01*
X32360734Y-78013158D01*
X32389076Y-78041500D01*
X19513601Y-78041500D01*
X19694414Y-77861003D01*
X19936224Y-77278659D01*
X19936775Y-76648107D01*
X19695981Y-76065343D01*
X19323029Y-75691739D01*
X19694414Y-75321003D01*
X19936224Y-74738659D01*
X19936775Y-74108107D01*
X19695981Y-73525343D01*
X19323029Y-73151739D01*
X19694414Y-72781003D01*
X19936224Y-72198659D01*
X19936775Y-71568107D01*
X19695981Y-70985343D01*
X19323029Y-70611739D01*
X19694414Y-70241003D01*
X19936224Y-69658659D01*
X19936775Y-69028107D01*
X19695981Y-68445343D01*
X19323029Y-68071739D01*
X19694414Y-67701003D01*
X19936224Y-67118659D01*
X19936775Y-66488107D01*
X19695981Y-65905343D01*
X19323029Y-65531739D01*
X19694414Y-65161003D01*
X19936224Y-64578659D01*
X19936775Y-63948107D01*
X19695981Y-63365343D01*
X19323029Y-62991739D01*
X19694414Y-62621003D01*
X19936224Y-62038659D01*
X19936775Y-61408107D01*
X19695981Y-60825343D01*
X19323029Y-60451739D01*
X19694414Y-60081003D01*
X19936224Y-59498659D01*
X19936775Y-58868107D01*
X19695981Y-58285343D01*
X19323029Y-57911739D01*
X19694414Y-57541003D01*
X19936224Y-56958659D01*
X19936775Y-56328107D01*
X19695981Y-55745343D01*
X19323029Y-55371739D01*
X19694414Y-55001003D01*
X19936224Y-54418659D01*
X19936775Y-53788107D01*
X19695981Y-53205343D01*
X19323029Y-52831739D01*
X19694414Y-52461003D01*
X19751303Y-52324000D01*
X22733000Y-52324000D01*
X23024605Y-52265996D01*
X23271815Y-52100815D01*
X32191035Y-43181595D01*
X32006776Y-43625341D01*
X32006225Y-44255893D01*
X32247019Y-44838657D01*
X32619971Y-45212261D01*
X32248586Y-45582997D01*
X32006776Y-46165341D01*
X32006225Y-46795893D01*
X32247019Y-47378657D01*
X32619971Y-47752261D01*
X32248586Y-48122997D01*
X32006776Y-48705341D01*
X32006225Y-49335893D01*
X32247019Y-49918657D01*
X32619971Y-50292261D01*
X32248586Y-50662997D01*
X32006776Y-51245341D01*
X32006225Y-51875893D01*
X32247019Y-52458657D01*
X32619971Y-52832261D01*
X32248586Y-53202997D01*
X32006776Y-53785341D01*
X32006225Y-54415893D01*
X32247019Y-54998657D01*
X32619971Y-55372261D01*
X32248586Y-55742997D01*
X32006776Y-56325341D01*
X32006225Y-56955893D01*
X32247019Y-57538657D01*
X32619971Y-57912261D01*
X32248586Y-58282997D01*
X32006776Y-58865341D01*
X32006225Y-59495893D01*
X32247019Y-60078657D01*
X32619971Y-60452261D01*
X32248586Y-60822997D01*
X32006776Y-61405341D01*
X32006225Y-62035893D01*
X32247019Y-62618657D01*
X32619971Y-62992261D01*
X32248586Y-63362997D01*
X32006776Y-63945341D01*
X32006225Y-64575893D01*
X32247019Y-65158657D01*
X32619971Y-65532261D01*
X32248586Y-65902997D01*
X32006776Y-66485341D01*
X32006225Y-67115893D01*
X32247019Y-67698657D01*
X32619971Y-68072261D01*
X32248586Y-68442997D01*
X32006776Y-69025341D01*
X32006225Y-69655893D01*
X32247019Y-70238657D01*
X32619971Y-70612261D01*
X32248586Y-70982997D01*
X32006776Y-71565341D01*
X32006225Y-72195893D01*
X32247019Y-72778657D01*
X32619971Y-73152261D01*
X32248586Y-73522997D01*
X32006776Y-74105341D01*
X32006225Y-74735893D01*
X32247019Y-75318657D01*
X32685711Y-75758116D01*
X32654755Y-75845650D01*
X33591500Y-76782395D01*
X34528245Y-75845650D01*
X34497093Y-75757561D01*
X34934414Y-75321003D01*
X35176224Y-74738659D01*
X35176775Y-74108107D01*
X34935981Y-73525343D01*
X34563029Y-73151739D01*
X34934414Y-72781003D01*
X35176224Y-72198659D01*
X35176775Y-71568107D01*
X34935981Y-70985343D01*
X34563029Y-70611739D01*
X34934414Y-70241003D01*
X35176224Y-69658659D01*
X35176775Y-69028107D01*
X34935981Y-68445343D01*
X34563029Y-68071739D01*
X34934414Y-67701003D01*
X35176224Y-67118659D01*
X35176775Y-66488107D01*
X34935981Y-65905343D01*
X34563029Y-65531739D01*
X34934414Y-65161003D01*
X35176224Y-64578659D01*
X35176775Y-63948107D01*
X34935981Y-63365343D01*
X34563029Y-62991739D01*
X34934414Y-62621003D01*
X35176224Y-62038659D01*
X35176775Y-61408107D01*
X34935981Y-60825343D01*
X34563029Y-60451739D01*
X34934414Y-60081003D01*
X35176224Y-59498659D01*
X35176775Y-58868107D01*
X34935981Y-58285343D01*
X34563029Y-57911739D01*
X34934414Y-57541003D01*
X35176224Y-56958659D01*
X35176775Y-56328107D01*
X34935981Y-55745343D01*
X34563029Y-55371739D01*
X34934414Y-55001003D01*
X35176224Y-54418659D01*
X35176775Y-53788107D01*
X34935981Y-53205343D01*
X34563029Y-52831739D01*
X34934414Y-52461003D01*
X35176224Y-51878659D01*
X35176775Y-51248107D01*
X34935981Y-50665343D01*
X34563029Y-50291739D01*
X34934414Y-49921003D01*
X35176224Y-49338659D01*
X35176775Y-48708107D01*
X34935981Y-48125343D01*
X34563029Y-47751739D01*
X34934414Y-47381003D01*
X35176224Y-46798659D01*
X35176775Y-46168107D01*
X34935981Y-45585343D01*
X34563029Y-45211739D01*
X34934414Y-44841003D01*
X35176224Y-44258659D01*
X35176775Y-43628107D01*
X34935981Y-43045343D01*
X34490503Y-42599086D01*
X34264421Y-42505209D01*
X35306000Y-41463631D01*
X35306000Y-78041500D01*
G36*
X21805377Y-14977533D02*
X21537112Y-15677806D01*
X21557250Y-16427435D01*
X21805377Y-17026467D01*
X22098180Y-17155715D01*
X23251895Y-16002000D01*
X23237753Y-15987858D01*
X23417358Y-15808253D01*
X23431500Y-15822395D01*
X23445643Y-15808253D01*
X23625248Y-15987858D01*
X23611105Y-16002000D01*
X23625248Y-16016143D01*
X23445643Y-16195748D01*
X23431500Y-16181605D01*
X22277785Y-17335320D01*
X22407033Y-17628123D01*
X22803489Y-17780000D01*
X22098000Y-17780000D01*
X21806395Y-17838004D01*
X21559185Y-18003185D01*
X19947685Y-19614685D01*
X19782504Y-19861895D01*
X19724500Y-20153500D01*
X19724500Y-22871008D01*
X19535059Y-22992910D01*
X19390069Y-23205110D01*
X19339060Y-23457000D01*
X19339060Y-25057000D01*
X19383338Y-25292317D01*
X19522410Y-25508441D01*
X19546988Y-25525234D01*
X19535059Y-25532910D01*
X19390069Y-25745110D01*
X19339060Y-25997000D01*
X19339060Y-27597000D01*
X19383338Y-27832317D01*
X19520084Y-28044826D01*
X19390069Y-28235110D01*
X19339060Y-28487000D01*
X19339060Y-29972000D01*
X18633940Y-29972000D01*
X18633940Y-28487000D01*
X18589662Y-28251683D01*
X18452916Y-28039174D01*
X18582931Y-27848890D01*
X18633940Y-27597000D01*
X18633940Y-25997000D01*
X18589662Y-25761683D01*
X18450590Y-25545559D01*
X18426012Y-25528766D01*
X18437941Y-25521090D01*
X18582931Y-25308890D01*
X18633940Y-25057000D01*
X18633940Y-23457000D01*
X18589662Y-23221683D01*
X18450590Y-23005559D01*
X18238390Y-22860569D01*
X17986500Y-22809560D01*
X16986500Y-22809560D01*
X16751183Y-22853838D01*
X16535059Y-22992910D01*
X16390069Y-23205110D01*
X16339060Y-23457000D01*
X16339060Y-25057000D01*
X16383338Y-25292317D01*
X16522410Y-25508441D01*
X16546988Y-25525234D01*
X16535059Y-25532910D01*
X16390069Y-25745110D01*
X16339060Y-25997000D01*
X16339060Y-27597000D01*
X16383338Y-27832317D01*
X16522410Y-28048441D01*
X16587314Y-28092788D01*
X16490069Y-28235110D01*
X16439060Y-28487000D01*
X16439060Y-30187000D01*
X16483338Y-30422317D01*
X16622410Y-30638441D01*
X16834610Y-30783431D01*
X17086500Y-30834440D01*
X17181206Y-30834440D01*
X17244895Y-30876996D01*
X17301032Y-30888162D01*
X17685685Y-31272815D01*
X17932895Y-31437996D01*
X18224500Y-31496000D01*
X20722361Y-31496000D01*
X20701176Y-31547018D01*
X20700824Y-31951208D01*
X20855175Y-32324766D01*
X20864952Y-32334560D01*
X19986500Y-32334560D01*
X19751183Y-32378838D01*
X19535059Y-32517910D01*
X19390069Y-32730110D01*
X19339060Y-32982000D01*
X19339060Y-34582000D01*
X19383338Y-34817317D01*
X19520084Y-35029826D01*
X19390069Y-35220110D01*
X19339060Y-35472000D01*
X19339060Y-36198529D01*
X19314500Y-36322000D01*
X19339060Y-36445471D01*
X19339060Y-36669809D01*
X18558525Y-37450344D01*
X18621500Y-37298310D01*
X18621500Y-36607750D01*
X18462750Y-36449000D01*
X17663500Y-36449000D01*
X17663500Y-36469000D01*
X17409500Y-36469000D01*
X17409500Y-36449000D01*
X16610250Y-36449000D01*
X16451500Y-36607750D01*
X16451500Y-37298310D01*
X16548173Y-37531699D01*
X16606371Y-37589897D01*
X16490069Y-37760110D01*
X16439060Y-38012000D01*
X16439060Y-39712000D01*
X16483338Y-39947317D01*
X16622410Y-40163441D01*
X16834610Y-40308431D01*
X17086500Y-40359440D01*
X17986500Y-40359440D01*
X18221817Y-40315162D01*
X18437941Y-40176090D01*
X18582931Y-39963890D01*
X18633940Y-39712000D01*
X18633940Y-39487261D01*
X18763315Y-39400815D01*
X19339060Y-38825070D01*
X19339060Y-39712000D01*
X19383338Y-39947317D01*
X19522410Y-40163441D01*
X19734610Y-40308431D01*
X19986500Y-40359440D01*
X20886500Y-40359440D01*
X21121817Y-40315162D01*
X21337941Y-40176090D01*
X21482931Y-39963890D01*
X21533940Y-39712000D01*
X21533940Y-39609889D01*
X21754605Y-39565996D01*
X22001815Y-39400815D01*
X22096076Y-39306554D01*
X22235708Y-39306676D01*
X22480112Y-39205690D01*
X24606500Y-39205690D01*
X24606500Y-39846250D01*
X24765250Y-40005000D01*
X25614500Y-40005000D01*
X25614500Y-38855750D01*
X25455750Y-38697000D01*
X25115191Y-38697000D01*
X24881802Y-38793673D01*
X24703173Y-38972301D01*
X24606500Y-39205690D01*
X22480112Y-39205690D01*
X22609266Y-39152325D01*
X22895321Y-38866769D01*
X23050324Y-38493482D01*
X23050408Y-38397538D01*
X23116110Y-38442431D01*
X23368000Y-38493440D01*
X24511000Y-38493440D01*
X24746317Y-38449162D01*
X24962441Y-38310090D01*
X25107431Y-38097890D01*
X25158440Y-37846000D01*
X25158440Y-37338000D01*
X25114162Y-37102683D01*
X25043253Y-36992488D01*
X25240315Y-36860815D01*
X25875316Y-36225815D01*
X25980764Y-36068000D01*
X26040496Y-35978605D01*
X26098500Y-35687000D01*
X26098500Y-33147000D01*
X26040496Y-32855395D01*
X25956783Y-32730110D01*
X25875316Y-32608185D01*
X25240315Y-31973185D01*
X25207424Y-31951208D01*
X25043396Y-31841608D01*
X25107431Y-31747890D01*
X25156660Y-31504790D01*
X26479500Y-32827631D01*
X26479500Y-38743264D01*
X26367809Y-38697000D01*
X26027250Y-38697000D01*
X25868500Y-38855750D01*
X25868500Y-40005000D01*
X25888500Y-40005000D01*
X25888500Y-40259000D01*
X25868500Y-40259000D01*
X25868500Y-41408250D01*
X25981310Y-41521060D01*
X21782370Y-45720000D01*
X19751620Y-45720000D01*
X19695981Y-45585343D01*
X19323029Y-45211739D01*
X19694414Y-44841003D01*
X19936224Y-44258659D01*
X19936775Y-43628107D01*
X19695981Y-43045343D01*
X19250503Y-42599086D01*
X18668159Y-42357276D01*
X18037607Y-42356725D01*
X17454843Y-42597519D01*
X17008586Y-43042997D01*
X16766776Y-43625341D01*
X16766225Y-44255893D01*
X17007019Y-44838657D01*
X17379971Y-45212261D01*
X17008586Y-45582997D01*
X16766776Y-46165341D01*
X16766225Y-46795893D01*
X17007019Y-47378657D01*
X17379971Y-47752261D01*
X17008586Y-48122997D01*
X16766776Y-48705341D01*
X16766225Y-49335893D01*
X17007019Y-49918657D01*
X17379971Y-50292261D01*
X17008586Y-50662997D01*
X16766776Y-51245341D01*
X16766225Y-51875893D01*
X17007019Y-52458657D01*
X17379971Y-52832261D01*
X17008586Y-53202997D01*
X16766776Y-53785341D01*
X16766225Y-54415893D01*
X17007019Y-54998657D01*
X17379971Y-55372261D01*
X17008586Y-55742997D01*
X16766776Y-56325341D01*
X16766225Y-56955893D01*
X17007019Y-57538657D01*
X17379971Y-57912261D01*
X17008586Y-58282997D01*
X16766776Y-58865341D01*
X16766225Y-59495893D01*
X17007019Y-60078657D01*
X17379971Y-60452261D01*
X17008586Y-60822997D01*
X16766776Y-61405341D01*
X16766225Y-62035893D01*
X17007019Y-62618657D01*
X17379971Y-62992261D01*
X17008586Y-63362997D01*
X16766776Y-63945341D01*
X16766225Y-64575893D01*
X17007019Y-65158657D01*
X17379971Y-65532261D01*
X17008586Y-65902997D01*
X16766776Y-66485341D01*
X16766225Y-67115893D01*
X17007019Y-67698657D01*
X17379971Y-68072261D01*
X17008586Y-68442997D01*
X16766776Y-69025341D01*
X16766225Y-69655893D01*
X17007019Y-70238657D01*
X17379971Y-70612261D01*
X17008586Y-70982997D01*
X16766776Y-71565341D01*
X16766225Y-72195893D01*
X17007019Y-72778657D01*
X17379971Y-73152261D01*
X17008586Y-73522997D01*
X16766776Y-74105341D01*
X16766225Y-74735893D01*
X17007019Y-75318657D01*
X17379971Y-75692261D01*
X17008586Y-76062997D01*
X16766776Y-76645341D01*
X16766225Y-77275893D01*
X17007019Y-77858657D01*
X17189543Y-78041500D01*
X16002000Y-78041500D01*
X16002000Y-40417750D01*
X24606500Y-40417750D01*
X24606500Y-41058310D01*
X24703173Y-41291699D01*
X24881802Y-41470327D01*
X25115191Y-41567000D01*
X25455750Y-41567000D01*
X25614500Y-41408250D01*
X25614500Y-40259000D01*
X24765250Y-40259000D01*
X24606500Y-40417750D01*
X16002000Y-40417750D01*
X16002000Y-34067750D01*
X16351500Y-34067750D01*
X16351500Y-34708310D01*
X16448173Y-34941699D01*
X16583474Y-35077000D01*
X16548173Y-35112301D01*
X16451500Y-35345690D01*
X16451500Y-36036250D01*
X16610250Y-36195000D01*
X17409500Y-36195000D01*
X17409500Y-34995750D01*
X17359500Y-34945750D01*
X17359500Y-33909000D01*
X17613500Y-33909000D01*
X17613500Y-35058250D01*
X17663500Y-35108250D01*
X17663500Y-36195000D01*
X18462750Y-36195000D01*
X18621500Y-36036250D01*
X18621500Y-35345690D01*
X18524827Y-35112301D01*
X18439526Y-35027000D01*
X18524827Y-34941699D01*
X18621500Y-34708310D01*
X18621500Y-34067750D01*
X18462750Y-33909000D01*
X17613500Y-33909000D01*
X17359500Y-33909000D01*
X16510250Y-33909000D01*
X16351500Y-34067750D01*
X16002000Y-34067750D01*
X16002000Y-32855690D01*
X16351500Y-32855690D01*
X16351500Y-33496250D01*
X16510250Y-33655000D01*
X17359500Y-33655000D01*
X17359500Y-32505750D01*
X17613500Y-32505750D01*
X17613500Y-33655000D01*
X18462750Y-33655000D01*
X18621500Y-33496250D01*
X18621500Y-32855690D01*
X18524827Y-32622301D01*
X18346198Y-32443673D01*
X18112809Y-32347000D01*
X17772250Y-32347000D01*
X17613500Y-32505750D01*
X17359500Y-32505750D01*
X17200750Y-32347000D01*
X16860191Y-32347000D01*
X16626802Y-32443673D01*
X16448173Y-32622301D01*
X16351500Y-32855690D01*
X16002000Y-32855690D01*
X16002000Y-14922500D01*
X21930051Y-14922500D01*
X21805377Y-14977533D01*
X21805377Y-14977533D01*
G37*
X21805377Y-14977533D02*
X21537112Y-15677806D01*
X21557250Y-16427435D01*
X21805377Y-17026467D01*
X22098180Y-17155715D01*
X23251895Y-16002000D01*
X23237753Y-15987858D01*
X23417358Y-15808253D01*
X23431500Y-15822395D01*
X23445643Y-15808253D01*
X23625248Y-15987858D01*
X23611105Y-16002000D01*
X23625248Y-16016143D01*
X23445643Y-16195748D01*
X23431500Y-16181605D01*
X22277785Y-17335320D01*
X22407033Y-17628123D01*
X22803489Y-17780000D01*
X22098000Y-17780000D01*
X21806395Y-17838004D01*
X21559185Y-18003185D01*
X19947685Y-19614685D01*
X19782504Y-19861895D01*
X19724500Y-20153500D01*
X19724500Y-22871008D01*
X19535059Y-22992910D01*
X19390069Y-23205110D01*
X19339060Y-23457000D01*
X19339060Y-25057000D01*
X19383338Y-25292317D01*
X19522410Y-25508441D01*
X19546988Y-25525234D01*
X19535059Y-25532910D01*
X19390069Y-25745110D01*
X19339060Y-25997000D01*
X19339060Y-27597000D01*
X19383338Y-27832317D01*
X19520084Y-28044826D01*
X19390069Y-28235110D01*
X19339060Y-28487000D01*
X19339060Y-29972000D01*
X18633940Y-29972000D01*
X18633940Y-28487000D01*
X18589662Y-28251683D01*
X18452916Y-28039174D01*
X18582931Y-27848890D01*
X18633940Y-27597000D01*
X18633940Y-25997000D01*
X18589662Y-25761683D01*
X18450590Y-25545559D01*
X18426012Y-25528766D01*
X18437941Y-25521090D01*
X18582931Y-25308890D01*
X18633940Y-25057000D01*
X18633940Y-23457000D01*
X18589662Y-23221683D01*
X18450590Y-23005559D01*
X18238390Y-22860569D01*
X17986500Y-22809560D01*
X16986500Y-22809560D01*
X16751183Y-22853838D01*
X16535059Y-22992910D01*
X16390069Y-23205110D01*
X16339060Y-23457000D01*
X16339060Y-25057000D01*
X16383338Y-25292317D01*
X16522410Y-25508441D01*
X16546988Y-25525234D01*
X16535059Y-25532910D01*
X16390069Y-25745110D01*
X16339060Y-25997000D01*
X16339060Y-27597000D01*
X16383338Y-27832317D01*
X16522410Y-28048441D01*
X16587314Y-28092788D01*
X16490069Y-28235110D01*
X16439060Y-28487000D01*
X16439060Y-30187000D01*
X16483338Y-30422317D01*
X16622410Y-30638441D01*
X16834610Y-30783431D01*
X17086500Y-30834440D01*
X17181206Y-30834440D01*
X17244895Y-30876996D01*
X17301032Y-30888162D01*
X17685685Y-31272815D01*
X17932895Y-31437996D01*
X18224500Y-31496000D01*
X20722361Y-31496000D01*
X20701176Y-31547018D01*
X20700824Y-31951208D01*
X20855175Y-32324766D01*
X20864952Y-32334560D01*
X19986500Y-32334560D01*
X19751183Y-32378838D01*
X19535059Y-32517910D01*
X19390069Y-32730110D01*
X19339060Y-32982000D01*
X19339060Y-34582000D01*
X19383338Y-34817317D01*
X19520084Y-35029826D01*
X19390069Y-35220110D01*
X19339060Y-35472000D01*
X19339060Y-36198529D01*
X19314500Y-36322000D01*
X19339060Y-36445471D01*
X19339060Y-36669809D01*
X18558525Y-37450344D01*
X18621500Y-37298310D01*
X18621500Y-36607750D01*
X18462750Y-36449000D01*
X17663500Y-36449000D01*
X17663500Y-36469000D01*
X17409500Y-36469000D01*
X17409500Y-36449000D01*
X16610250Y-36449000D01*
X16451500Y-36607750D01*
X16451500Y-37298310D01*
X16548173Y-37531699D01*
X16606371Y-37589897D01*
X16490069Y-37760110D01*
X16439060Y-38012000D01*
X16439060Y-39712000D01*
X16483338Y-39947317D01*
X16622410Y-40163441D01*
X16834610Y-40308431D01*
X17086500Y-40359440D01*
X17986500Y-40359440D01*
X18221817Y-40315162D01*
X18437941Y-40176090D01*
X18582931Y-39963890D01*
X18633940Y-39712000D01*
X18633940Y-39487261D01*
X18763315Y-39400815D01*
X19339060Y-38825070D01*
X19339060Y-39712000D01*
X19383338Y-39947317D01*
X19522410Y-40163441D01*
X19734610Y-40308431D01*
X19986500Y-40359440D01*
X20886500Y-40359440D01*
X21121817Y-40315162D01*
X21337941Y-40176090D01*
X21482931Y-39963890D01*
X21533940Y-39712000D01*
X21533940Y-39609889D01*
X21754605Y-39565996D01*
X22001815Y-39400815D01*
X22096076Y-39306554D01*
X22235708Y-39306676D01*
X22480112Y-39205690D01*
X24606500Y-39205690D01*
X24606500Y-39846250D01*
X24765250Y-40005000D01*
X25614500Y-40005000D01*
X25614500Y-38855750D01*
X25455750Y-38697000D01*
X25115191Y-38697000D01*
X24881802Y-38793673D01*
X24703173Y-38972301D01*
X24606500Y-39205690D01*
X22480112Y-39205690D01*
X22609266Y-39152325D01*
X22895321Y-38866769D01*
X23050324Y-38493482D01*
X23050408Y-38397538D01*
X23116110Y-38442431D01*
X23368000Y-38493440D01*
X24511000Y-38493440D01*
X24746317Y-38449162D01*
X24962441Y-38310090D01*
X25107431Y-38097890D01*
X25158440Y-37846000D01*
X25158440Y-37338000D01*
X25114162Y-37102683D01*
X25043253Y-36992488D01*
X25240315Y-36860815D01*
X25875316Y-36225815D01*
X25980764Y-36068000D01*
X26040496Y-35978605D01*
X26098500Y-35687000D01*
X26098500Y-33147000D01*
X26040496Y-32855395D01*
X25956783Y-32730110D01*
X25875316Y-32608185D01*
X25240315Y-31973185D01*
X25207424Y-31951208D01*
X25043396Y-31841608D01*
X25107431Y-31747890D01*
X25156660Y-31504790D01*
X26479500Y-32827631D01*
X26479500Y-38743264D01*
X26367809Y-38697000D01*
X26027250Y-38697000D01*
X25868500Y-38855750D01*
X25868500Y-40005000D01*
X25888500Y-40005000D01*
X25888500Y-40259000D01*
X25868500Y-40259000D01*
X25868500Y-41408250D01*
X25981310Y-41521060D01*
X21782370Y-45720000D01*
X19751620Y-45720000D01*
X19695981Y-45585343D01*
X19323029Y-45211739D01*
X19694414Y-44841003D01*
X19936224Y-44258659D01*
X19936775Y-43628107D01*
X19695981Y-43045343D01*
X19250503Y-42599086D01*
X18668159Y-42357276D01*
X18037607Y-42356725D01*
X17454843Y-42597519D01*
X17008586Y-43042997D01*
X16766776Y-43625341D01*
X16766225Y-44255893D01*
X17007019Y-44838657D01*
X17379971Y-45212261D01*
X17008586Y-45582997D01*
X16766776Y-46165341D01*
X16766225Y-46795893D01*
X17007019Y-47378657D01*
X17379971Y-47752261D01*
X17008586Y-48122997D01*
X16766776Y-48705341D01*
X16766225Y-49335893D01*
X17007019Y-49918657D01*
X17379971Y-50292261D01*
X17008586Y-50662997D01*
X16766776Y-51245341D01*
X16766225Y-51875893D01*
X17007019Y-52458657D01*
X17379971Y-52832261D01*
X17008586Y-53202997D01*
X16766776Y-53785341D01*
X16766225Y-54415893D01*
X17007019Y-54998657D01*
X17379971Y-55372261D01*
X17008586Y-55742997D01*
X16766776Y-56325341D01*
X16766225Y-56955893D01*
X17007019Y-57538657D01*
X17379971Y-57912261D01*
X17008586Y-58282997D01*
X16766776Y-58865341D01*
X16766225Y-59495893D01*
X17007019Y-60078657D01*
X17379971Y-60452261D01*
X17008586Y-60822997D01*
X16766776Y-61405341D01*
X16766225Y-62035893D01*
X17007019Y-62618657D01*
X17379971Y-62992261D01*
X17008586Y-63362997D01*
X16766776Y-63945341D01*
X16766225Y-64575893D01*
X17007019Y-65158657D01*
X17379971Y-65532261D01*
X17008586Y-65902997D01*
X16766776Y-66485341D01*
X16766225Y-67115893D01*
X17007019Y-67698657D01*
X17379971Y-68072261D01*
X17008586Y-68442997D01*
X16766776Y-69025341D01*
X16766225Y-69655893D01*
X17007019Y-70238657D01*
X17379971Y-70612261D01*
X17008586Y-70982997D01*
X16766776Y-71565341D01*
X16766225Y-72195893D01*
X17007019Y-72778657D01*
X17379971Y-73152261D01*
X17008586Y-73522997D01*
X16766776Y-74105341D01*
X16766225Y-74735893D01*
X17007019Y-75318657D01*
X17379971Y-75692261D01*
X17008586Y-76062997D01*
X16766776Y-76645341D01*
X16766225Y-77275893D01*
X17007019Y-77858657D01*
X17189543Y-78041500D01*
X16002000Y-78041500D01*
X16002000Y-40417750D01*
X24606500Y-40417750D01*
X24606500Y-41058310D01*
X24703173Y-41291699D01*
X24881802Y-41470327D01*
X25115191Y-41567000D01*
X25455750Y-41567000D01*
X25614500Y-41408250D01*
X25614500Y-40259000D01*
X24765250Y-40259000D01*
X24606500Y-40417750D01*
X16002000Y-40417750D01*
X16002000Y-34067750D01*
X16351500Y-34067750D01*
X16351500Y-34708310D01*
X16448173Y-34941699D01*
X16583474Y-35077000D01*
X16548173Y-35112301D01*
X16451500Y-35345690D01*
X16451500Y-36036250D01*
X16610250Y-36195000D01*
X17409500Y-36195000D01*
X17409500Y-34995750D01*
X17359500Y-34945750D01*
X17359500Y-33909000D01*
X17613500Y-33909000D01*
X17613500Y-35058250D01*
X17663500Y-35108250D01*
X17663500Y-36195000D01*
X18462750Y-36195000D01*
X18621500Y-36036250D01*
X18621500Y-35345690D01*
X18524827Y-35112301D01*
X18439526Y-35027000D01*
X18524827Y-34941699D01*
X18621500Y-34708310D01*
X18621500Y-34067750D01*
X18462750Y-33909000D01*
X17613500Y-33909000D01*
X17359500Y-33909000D01*
X16510250Y-33909000D01*
X16351500Y-34067750D01*
X16002000Y-34067750D01*
X16002000Y-32855690D01*
X16351500Y-32855690D01*
X16351500Y-33496250D01*
X16510250Y-33655000D01*
X17359500Y-33655000D01*
X17359500Y-32505750D01*
X17613500Y-32505750D01*
X17613500Y-33655000D01*
X18462750Y-33655000D01*
X18621500Y-33496250D01*
X18621500Y-32855690D01*
X18524827Y-32622301D01*
X18346198Y-32443673D01*
X18112809Y-32347000D01*
X17772250Y-32347000D01*
X17613500Y-32505750D01*
X17359500Y-32505750D01*
X17200750Y-32347000D01*
X16860191Y-32347000D01*
X16626802Y-32443673D01*
X16448173Y-32622301D01*
X16351500Y-32855690D01*
X16002000Y-32855690D01*
X16002000Y-14922500D01*
X21930051Y-14922500D01*
X21805377Y-14977533D01*
G36*
X35306000Y-29148369D02*
X35088940Y-28931309D01*
X35088940Y-28072000D01*
X35044662Y-27836683D01*
X34992609Y-27755790D01*
X35038940Y-27527000D01*
X35038940Y-26527000D01*
X34994662Y-26291683D01*
X34855590Y-26075559D01*
X34643390Y-25930569D01*
X34391500Y-25879560D01*
X32791500Y-25879560D01*
X32556183Y-25923838D01*
X32428940Y-26005717D01*
X32428940Y-25997000D01*
X32384662Y-25761683D01*
X32245590Y-25545559D01*
X32180686Y-25501212D01*
X32277931Y-25358890D01*
X32328940Y-25107000D01*
X32328940Y-24962465D01*
X32431801Y-25065327D01*
X32665190Y-25162000D01*
X33305750Y-25162000D01*
X33464500Y-25003250D01*
X33464500Y-24154000D01*
X33718500Y-24154000D01*
X33718500Y-25003250D01*
X33877250Y-25162000D01*
X34517810Y-25162000D01*
X34751199Y-25065327D01*
X34929827Y-24886698D01*
X35026500Y-24653309D01*
X35026500Y-24312750D01*
X34867750Y-24154000D01*
X33718500Y-24154000D01*
X33464500Y-24154000D01*
X33444500Y-24154000D01*
X33444500Y-23900000D01*
X33464500Y-23900000D01*
X33464500Y-23050750D01*
X33718500Y-23050750D01*
X33718500Y-23900000D01*
X34867750Y-23900000D01*
X35026500Y-23741250D01*
X35026500Y-23400691D01*
X34929827Y-23167302D01*
X34751199Y-22988673D01*
X34517810Y-22892000D01*
X33877250Y-22892000D01*
X33718500Y-23050750D01*
X33464500Y-23050750D01*
X33305750Y-22892000D01*
X32665190Y-22892000D01*
X32431801Y-22988673D01*
X32270618Y-23149857D01*
X32145590Y-22955559D01*
X31933390Y-22810569D01*
X31681500Y-22759560D01*
X30781500Y-22759560D01*
X30546183Y-22803838D01*
X30330059Y-22942910D01*
X30185069Y-23155110D01*
X30134060Y-23407000D01*
X30134060Y-25107000D01*
X30178338Y-25342317D01*
X30315084Y-25554826D01*
X30185069Y-25745110D01*
X30134060Y-25997000D01*
X30134060Y-27597000D01*
X30178338Y-27832317D01*
X30317410Y-28048441D01*
X30519500Y-28186523D01*
X30519500Y-28664370D01*
X30113310Y-29070560D01*
X29718000Y-29070560D01*
X29482683Y-29114838D01*
X29266559Y-29253910D01*
X29121569Y-29466110D01*
X29070560Y-29718000D01*
X29070560Y-30226000D01*
X29114838Y-30461317D01*
X29209166Y-30607907D01*
X29121569Y-30736110D01*
X29070560Y-30988000D01*
X29070560Y-31496000D01*
X29114838Y-31731317D01*
X29209166Y-31877907D01*
X29121569Y-32006110D01*
X29099175Y-32116694D01*
X28607685Y-32608185D01*
X28442504Y-32855395D01*
X28384500Y-33147000D01*
X28384500Y-34417000D01*
X28442504Y-34708605D01*
X28519983Y-34824560D01*
X28607685Y-34955815D01*
X29096679Y-35444810D01*
X29114838Y-35541317D01*
X29209166Y-35687907D01*
X29121569Y-35816110D01*
X29070560Y-36068000D01*
X29070560Y-36576000D01*
X29114838Y-36811317D01*
X29209166Y-36957907D01*
X29121569Y-37086110D01*
X29070560Y-37338000D01*
X29070560Y-37846000D01*
X29114838Y-38081317D01*
X29253910Y-38297441D01*
X29466110Y-38442431D01*
X29527500Y-38454863D01*
X29527500Y-38714478D01*
X29455832Y-38727963D01*
X29241500Y-38684560D01*
X28241500Y-38684560D01*
X28006183Y-38728838D01*
X28003500Y-38730564D01*
X28003500Y-32512000D01*
X27945496Y-32220395D01*
X27881013Y-32123890D01*
X27780315Y-31973184D01*
X25240315Y-29433185D01*
X25096364Y-29337000D01*
X24993105Y-29268004D01*
X24970675Y-29263542D01*
X24828500Y-29166398D01*
X24828500Y-28709440D01*
X24916500Y-28709440D01*
X25151817Y-28665162D01*
X25367941Y-28526090D01*
X25512931Y-28313890D01*
X25563940Y-28062000D01*
X25563940Y-27162000D01*
X25519662Y-26926683D01*
X25380590Y-26710559D01*
X25168390Y-26565569D01*
X24916500Y-26514560D01*
X23216500Y-26514560D01*
X22981183Y-26558838D01*
X22765059Y-26697910D01*
X22620069Y-26910110D01*
X22569060Y-27162000D01*
X22569060Y-28062000D01*
X22613338Y-28297317D01*
X22752410Y-28513441D01*
X22842505Y-28575000D01*
X21533940Y-28575000D01*
X21533940Y-28487000D01*
X21489662Y-28251683D01*
X21387786Y-28093364D01*
X21437941Y-28061090D01*
X21582931Y-27848890D01*
X21633940Y-27597000D01*
X21633940Y-25997000D01*
X21589662Y-25761683D01*
X21450590Y-25545559D01*
X21426012Y-25528766D01*
X21437941Y-25521090D01*
X21582931Y-25308890D01*
X21633940Y-25057000D01*
X21633940Y-24262000D01*
X22569060Y-24262000D01*
X22569060Y-25162000D01*
X22613338Y-25397317D01*
X22752410Y-25613441D01*
X22964610Y-25758431D01*
X23216500Y-25809440D01*
X24916500Y-25809440D01*
X25151817Y-25765162D01*
X25367941Y-25626090D01*
X25471860Y-25474000D01*
X27363074Y-25474000D01*
X27380214Y-25500636D01*
X27330059Y-25532910D01*
X27185069Y-25745110D01*
X27134060Y-25997000D01*
X27134060Y-27597000D01*
X27178338Y-27832317D01*
X27317410Y-28048441D01*
X27529610Y-28193431D01*
X27781500Y-28244440D01*
X28781500Y-28244440D01*
X29016817Y-28200162D01*
X29232941Y-28061090D01*
X29377931Y-27848890D01*
X29428940Y-27597000D01*
X29428940Y-25997000D01*
X29384662Y-25761683D01*
X29247916Y-25549174D01*
X29377931Y-25358890D01*
X29428940Y-25107000D01*
X29428940Y-23407000D01*
X29384662Y-23171683D01*
X29245590Y-22955559D01*
X29129727Y-22876393D01*
X29535967Y-22708123D01*
X29665215Y-22415320D01*
X28511500Y-21261605D01*
X27357785Y-22415320D01*
X27487033Y-22708123D01*
X27707009Y-22792393D01*
X27646183Y-22803838D01*
X27430059Y-22942910D01*
X27285069Y-23155110D01*
X27234060Y-23407000D01*
X27234060Y-23950000D01*
X25470318Y-23950000D01*
X25380590Y-23810559D01*
X25168390Y-23665569D01*
X24916500Y-23614560D01*
X23216500Y-23614560D01*
X22981183Y-23658838D01*
X22765059Y-23797910D01*
X22620069Y-24010110D01*
X22569060Y-24262000D01*
X21633940Y-24262000D01*
X21633940Y-23457000D01*
X21589662Y-23221683D01*
X21450590Y-23005559D01*
X21248500Y-22867477D01*
X21248500Y-22415320D01*
X22277785Y-22415320D01*
X22407033Y-22708123D01*
X23107306Y-22976388D01*
X23856935Y-22956250D01*
X24455967Y-22708123D01*
X24585215Y-22415320D01*
X23431500Y-21261605D01*
X22277785Y-22415320D01*
X21248500Y-22415320D01*
X21248500Y-20757806D01*
X21537112Y-20757806D01*
X21557250Y-21507435D01*
X21805377Y-22106467D01*
X22098180Y-22235715D01*
X23251895Y-21082000D01*
X22098180Y-19928285D01*
X21805377Y-20057533D01*
X21537112Y-20757806D01*
X21248500Y-20757806D01*
X21248500Y-20469130D01*
X22413630Y-19304000D01*
X22773697Y-19304000D01*
X22407033Y-19455877D01*
X22277785Y-19748680D01*
X23431500Y-20902395D01*
X23445643Y-20888253D01*
X23625248Y-21067858D01*
X23611105Y-21082000D01*
X24764820Y-22235715D01*
X25057623Y-22106467D01*
X25325888Y-21406194D01*
X25305750Y-20656565D01*
X25103597Y-20168524D01*
X25604895Y-20376681D01*
X26334903Y-20377318D01*
X26843353Y-20167231D01*
X26617112Y-20757806D01*
X26637250Y-21507435D01*
X26885377Y-22106467D01*
X27178180Y-22235715D01*
X28331895Y-21082000D01*
X28691105Y-21082000D01*
X29844820Y-22235715D01*
X30137623Y-22106467D01*
X30405888Y-21406194D01*
X30385750Y-20656565D01*
X30137623Y-20057533D01*
X29844820Y-19928285D01*
X28691105Y-21082000D01*
X28331895Y-21082000D01*
X28317753Y-21067858D01*
X28497358Y-20888253D01*
X28511500Y-20902395D01*
X29665215Y-19748680D01*
X29535967Y-19455877D01*
X28835694Y-19187612D01*
X28086065Y-19207750D01*
X27598024Y-19409903D01*
X27806181Y-18908605D01*
X27806818Y-18178597D01*
X27596731Y-17670147D01*
X28187306Y-17896388D01*
X28936935Y-17876250D01*
X29535967Y-17628123D01*
X29665215Y-17335320D01*
X28511500Y-16181605D01*
X28497358Y-16195748D01*
X28317753Y-16016143D01*
X28331895Y-16002000D01*
X28317753Y-15987858D01*
X28497358Y-15808253D01*
X28511500Y-15822395D01*
X28525643Y-15808253D01*
X28705248Y-15987858D01*
X28691105Y-16002000D01*
X29844820Y-17155715D01*
X30137623Y-17026467D01*
X30405888Y-16326194D01*
X30385750Y-15576565D01*
X30137623Y-14977533D01*
X30012949Y-14922500D01*
X35306000Y-14922500D01*
X35306000Y-29148369D01*
X35306000Y-29148369D01*
G37*
X35306000Y-29148369D02*
X35088940Y-28931309D01*
X35088940Y-28072000D01*
X35044662Y-27836683D01*
X34992609Y-27755790D01*
X35038940Y-27527000D01*
X35038940Y-26527000D01*
X34994662Y-26291683D01*
X34855590Y-26075559D01*
X34643390Y-25930569D01*
X34391500Y-25879560D01*
X32791500Y-25879560D01*
X32556183Y-25923838D01*
X32428940Y-26005717D01*
X32428940Y-25997000D01*
X32384662Y-25761683D01*
X32245590Y-25545559D01*
X32180686Y-25501212D01*
X32277931Y-25358890D01*
X32328940Y-25107000D01*
X32328940Y-24962465D01*
X32431801Y-25065327D01*
X32665190Y-25162000D01*
X33305750Y-25162000D01*
X33464500Y-25003250D01*
X33464500Y-24154000D01*
X33718500Y-24154000D01*
X33718500Y-25003250D01*
X33877250Y-25162000D01*
X34517810Y-25162000D01*
X34751199Y-25065327D01*
X34929827Y-24886698D01*
X35026500Y-24653309D01*
X35026500Y-24312750D01*
X34867750Y-24154000D01*
X33718500Y-24154000D01*
X33464500Y-24154000D01*
X33444500Y-24154000D01*
X33444500Y-23900000D01*
X33464500Y-23900000D01*
X33464500Y-23050750D01*
X33718500Y-23050750D01*
X33718500Y-23900000D01*
X34867750Y-23900000D01*
X35026500Y-23741250D01*
X35026500Y-23400691D01*
X34929827Y-23167302D01*
X34751199Y-22988673D01*
X34517810Y-22892000D01*
X33877250Y-22892000D01*
X33718500Y-23050750D01*
X33464500Y-23050750D01*
X33305750Y-22892000D01*
X32665190Y-22892000D01*
X32431801Y-22988673D01*
X32270618Y-23149857D01*
X32145590Y-22955559D01*
X31933390Y-22810569D01*
X31681500Y-22759560D01*
X30781500Y-22759560D01*
X30546183Y-22803838D01*
X30330059Y-22942910D01*
X30185069Y-23155110D01*
X30134060Y-23407000D01*
X30134060Y-25107000D01*
X30178338Y-25342317D01*
X30315084Y-25554826D01*
X30185069Y-25745110D01*
X30134060Y-25997000D01*
X30134060Y-27597000D01*
X30178338Y-27832317D01*
X30317410Y-28048441D01*
X30519500Y-28186523D01*
X30519500Y-28664370D01*
X30113310Y-29070560D01*
X29718000Y-29070560D01*
X29482683Y-29114838D01*
X29266559Y-29253910D01*
X29121569Y-29466110D01*
X29070560Y-29718000D01*
X29070560Y-30226000D01*
X29114838Y-30461317D01*
X29209166Y-30607907D01*
X29121569Y-30736110D01*
X29070560Y-30988000D01*
X29070560Y-31496000D01*
X29114838Y-31731317D01*
X29209166Y-31877907D01*
X29121569Y-32006110D01*
X29099175Y-32116694D01*
X28607685Y-32608185D01*
X28442504Y-32855395D01*
X28384500Y-33147000D01*
X28384500Y-34417000D01*
X28442504Y-34708605D01*
X28519983Y-34824560D01*
X28607685Y-34955815D01*
X29096679Y-35444810D01*
X29114838Y-35541317D01*
X29209166Y-35687907D01*
X29121569Y-35816110D01*
X29070560Y-36068000D01*
X29070560Y-36576000D01*
X29114838Y-36811317D01*
X29209166Y-36957907D01*
X29121569Y-37086110D01*
X29070560Y-37338000D01*
X29070560Y-37846000D01*
X29114838Y-38081317D01*
X29253910Y-38297441D01*
X29466110Y-38442431D01*
X29527500Y-38454863D01*
X29527500Y-38714478D01*
X29455832Y-38727963D01*
X29241500Y-38684560D01*
X28241500Y-38684560D01*
X28006183Y-38728838D01*
X28003500Y-38730564D01*
X28003500Y-32512000D01*
X27945496Y-32220395D01*
X27881013Y-32123890D01*
X27780315Y-31973184D01*
X25240315Y-29433185D01*
X25096364Y-29337000D01*
X24993105Y-29268004D01*
X24970675Y-29263542D01*
X24828500Y-29166398D01*
X24828500Y-28709440D01*
X24916500Y-28709440D01*
X25151817Y-28665162D01*
X25367941Y-28526090D01*
X25512931Y-28313890D01*
X25563940Y-28062000D01*
X25563940Y-27162000D01*
X25519662Y-26926683D01*
X25380590Y-26710559D01*
X25168390Y-26565569D01*
X24916500Y-26514560D01*
X23216500Y-26514560D01*
X22981183Y-26558838D01*
X22765059Y-26697910D01*
X22620069Y-26910110D01*
X22569060Y-27162000D01*
X22569060Y-28062000D01*
X22613338Y-28297317D01*
X22752410Y-28513441D01*
X22842505Y-28575000D01*
X21533940Y-28575000D01*
X21533940Y-28487000D01*
X21489662Y-28251683D01*
X21387786Y-28093364D01*
X21437941Y-28061090D01*
X21582931Y-27848890D01*
X21633940Y-27597000D01*
X21633940Y-25997000D01*
X21589662Y-25761683D01*
X21450590Y-25545559D01*
X21426012Y-25528766D01*
X21437941Y-25521090D01*
X21582931Y-25308890D01*
X21633940Y-25057000D01*
X21633940Y-24262000D01*
X22569060Y-24262000D01*
X22569060Y-25162000D01*
X22613338Y-25397317D01*
X22752410Y-25613441D01*
X22964610Y-25758431D01*
X23216500Y-25809440D01*
X24916500Y-25809440D01*
X25151817Y-25765162D01*
X25367941Y-25626090D01*
X25471860Y-25474000D01*
X27363074Y-25474000D01*
X27380214Y-25500636D01*
X27330059Y-25532910D01*
X27185069Y-25745110D01*
X27134060Y-25997000D01*
X27134060Y-27597000D01*
X27178338Y-27832317D01*
X27317410Y-28048441D01*
X27529610Y-28193431D01*
X27781500Y-28244440D01*
X28781500Y-28244440D01*
X29016817Y-28200162D01*
X29232941Y-28061090D01*
X29377931Y-27848890D01*
X29428940Y-27597000D01*
X29428940Y-25997000D01*
X29384662Y-25761683D01*
X29247916Y-25549174D01*
X29377931Y-25358890D01*
X29428940Y-25107000D01*
X29428940Y-23407000D01*
X29384662Y-23171683D01*
X29245590Y-22955559D01*
X29129727Y-22876393D01*
X29535967Y-22708123D01*
X29665215Y-22415320D01*
X28511500Y-21261605D01*
X27357785Y-22415320D01*
X27487033Y-22708123D01*
X27707009Y-22792393D01*
X27646183Y-22803838D01*
X27430059Y-22942910D01*
X27285069Y-23155110D01*
X27234060Y-23407000D01*
X27234060Y-23950000D01*
X25470318Y-23950000D01*
X25380590Y-23810559D01*
X25168390Y-23665569D01*
X24916500Y-23614560D01*
X23216500Y-23614560D01*
X22981183Y-23658838D01*
X22765059Y-23797910D01*
X22620069Y-24010110D01*
X22569060Y-24262000D01*
X21633940Y-24262000D01*
X21633940Y-23457000D01*
X21589662Y-23221683D01*
X21450590Y-23005559D01*
X21248500Y-22867477D01*
X21248500Y-22415320D01*
X22277785Y-22415320D01*
X22407033Y-22708123D01*
X23107306Y-22976388D01*
X23856935Y-22956250D01*
X24455967Y-22708123D01*
X24585215Y-22415320D01*
X23431500Y-21261605D01*
X22277785Y-22415320D01*
X21248500Y-22415320D01*
X21248500Y-20757806D01*
X21537112Y-20757806D01*
X21557250Y-21507435D01*
X21805377Y-22106467D01*
X22098180Y-22235715D01*
X23251895Y-21082000D01*
X22098180Y-19928285D01*
X21805377Y-20057533D01*
X21537112Y-20757806D01*
X21248500Y-20757806D01*
X21248500Y-20469130D01*
X22413630Y-19304000D01*
X22773697Y-19304000D01*
X22407033Y-19455877D01*
X22277785Y-19748680D01*
X23431500Y-20902395D01*
X23445643Y-20888253D01*
X23625248Y-21067858D01*
X23611105Y-21082000D01*
X24764820Y-22235715D01*
X25057623Y-22106467D01*
X25325888Y-21406194D01*
X25305750Y-20656565D01*
X25103597Y-20168524D01*
X25604895Y-20376681D01*
X26334903Y-20377318D01*
X26843353Y-20167231D01*
X26617112Y-20757806D01*
X26637250Y-21507435D01*
X26885377Y-22106467D01*
X27178180Y-22235715D01*
X28331895Y-21082000D01*
X28691105Y-21082000D01*
X29844820Y-22235715D01*
X30137623Y-22106467D01*
X30405888Y-21406194D01*
X30385750Y-20656565D01*
X30137623Y-20057533D01*
X29844820Y-19928285D01*
X28691105Y-21082000D01*
X28331895Y-21082000D01*
X28317753Y-21067858D01*
X28497358Y-20888253D01*
X28511500Y-20902395D01*
X29665215Y-19748680D01*
X29535967Y-19455877D01*
X28835694Y-19187612D01*
X28086065Y-19207750D01*
X27598024Y-19409903D01*
X27806181Y-18908605D01*
X27806818Y-18178597D01*
X27596731Y-17670147D01*
X28187306Y-17896388D01*
X28936935Y-17876250D01*
X29535967Y-17628123D01*
X29665215Y-17335320D01*
X28511500Y-16181605D01*
X28497358Y-16195748D01*
X28317753Y-16016143D01*
X28331895Y-16002000D01*
X28317753Y-15987858D01*
X28497358Y-15808253D01*
X28511500Y-15822395D01*
X28525643Y-15808253D01*
X28705248Y-15987858D01*
X28691105Y-16002000D01*
X29844820Y-17155715D01*
X30137623Y-17026467D01*
X30405888Y-16326194D01*
X30385750Y-15576565D01*
X30137623Y-14977533D01*
X30012949Y-14922500D01*
X35306000Y-14922500D01*
X35306000Y-29148369D01*
G36*
X31503338Y-33652317D02*
X31642410Y-33868441D01*
X31854610Y-34013431D01*
X32106500Y-34064440D01*
X32976310Y-34064440D01*
X33681429Y-34769560D01*
X32106500Y-34769560D01*
X31871183Y-34813838D01*
X31655059Y-34952910D01*
X31551140Y-35105000D01*
X31508440Y-35105000D01*
X31508440Y-34798000D01*
X31464162Y-34562683D01*
X31373396Y-34421629D01*
X31399327Y-34395698D01*
X31496000Y-34162309D01*
X31496000Y-34067750D01*
X31337250Y-33909000D01*
X30416500Y-33909000D01*
X30416500Y-33929000D01*
X30162500Y-33929000D01*
X30162500Y-33909000D01*
X30142500Y-33909000D01*
X30142500Y-33655000D01*
X30162500Y-33655000D01*
X30162500Y-33635000D01*
X30416500Y-33635000D01*
X30416500Y-33655000D01*
X31337250Y-33655000D01*
X31477460Y-33514790D01*
X31503338Y-33652317D01*
X31503338Y-33652317D01*
G37*
X31503338Y-33652317D02*
X31642410Y-33868441D01*
X31854610Y-34013431D01*
X32106500Y-34064440D01*
X32976310Y-34064440D01*
X33681429Y-34769560D01*
X32106500Y-34769560D01*
X31871183Y-34813838D01*
X31655059Y-34952910D01*
X31551140Y-35105000D01*
X31508440Y-35105000D01*
X31508440Y-34798000D01*
X31464162Y-34562683D01*
X31373396Y-34421629D01*
X31399327Y-34395698D01*
X31496000Y-34162309D01*
X31496000Y-34067750D01*
X31337250Y-33909000D01*
X30416500Y-33909000D01*
X30416500Y-33929000D01*
X30162500Y-33929000D01*
X30162500Y-33909000D01*
X30142500Y-33909000D01*
X30142500Y-33655000D01*
X30162500Y-33655000D01*
X30162500Y-33635000D01*
X30416500Y-33635000D01*
X30416500Y-33655000D01*
X31337250Y-33655000D01*
X31477460Y-33514790D01*
X31503338Y-33652317D01*
M02*
