G04 #@! TF.FileFunction,Legend,Top*
%FSLAX46Y46*%
G04 Gerber Fmt 4.6, Leading zero omitted, Abs format (unit mm)*
G04 Created by KiCad (PCBNEW 4.0.1-stable) date 4/13/2016 1:24:27 PM*
%MOMM*%
G01*
G04 APERTURE LIST*
%ADD10C,0.150000*%
%ADD11C,0.200000*%
%ADD12C,0.381000*%
%ADD13C,0.254000*%
G04 APERTURE END LIST*
D10*
D11*
X25423881Y-76160835D02*
X25423881Y-75703692D01*
X26423881Y-75932263D02*
X25423881Y-75932263D01*
X26376262Y-75132263D02*
X26423881Y-75208453D01*
X26423881Y-75360834D01*
X26376262Y-75437025D01*
X26281024Y-75475120D01*
X25900071Y-75475120D01*
X25804833Y-75437025D01*
X25757214Y-75360834D01*
X25757214Y-75208453D01*
X25804833Y-75132263D01*
X25900071Y-75094168D01*
X25995310Y-75094168D01*
X26090548Y-75475120D01*
X26376262Y-74446549D02*
X26423881Y-74522739D01*
X26423881Y-74675120D01*
X26376262Y-74751311D01*
X26281024Y-74789406D01*
X25900071Y-74789406D01*
X25804833Y-74751311D01*
X25757214Y-74675120D01*
X25757214Y-74522739D01*
X25804833Y-74446549D01*
X25900071Y-74408454D01*
X25995310Y-74408454D01*
X26090548Y-74789406D01*
X25757214Y-74065597D02*
X26423881Y-74065597D01*
X25852452Y-74065597D02*
X25804833Y-74027502D01*
X25757214Y-73951311D01*
X25757214Y-73837025D01*
X25804833Y-73760835D01*
X25900071Y-73722740D01*
X26423881Y-73722740D01*
X26376262Y-73379882D02*
X26423881Y-73303692D01*
X26423881Y-73151311D01*
X26376262Y-73075120D01*
X26281024Y-73037025D01*
X26233405Y-73037025D01*
X26138167Y-73075120D01*
X26090548Y-73151311D01*
X26090548Y-73265596D01*
X26042929Y-73341787D01*
X25947690Y-73379882D01*
X25900071Y-73379882D01*
X25804833Y-73341787D01*
X25757214Y-73265596D01*
X25757214Y-73151311D01*
X25804833Y-73075120D01*
X25757214Y-72770358D02*
X26423881Y-72579882D01*
X25757214Y-72389406D02*
X26423881Y-72579882D01*
X26661976Y-72656073D01*
X26709595Y-72694168D01*
X26757214Y-72770358D01*
X25757214Y-71589406D02*
X25757214Y-71284644D01*
X26423881Y-71475120D02*
X25566738Y-71475120D01*
X25471500Y-71437025D01*
X25423881Y-71360834D01*
X25423881Y-71284644D01*
X26376262Y-70713215D02*
X26423881Y-70789405D01*
X26423881Y-70941786D01*
X26376262Y-71017977D01*
X26281024Y-71056072D01*
X25900071Y-71056072D01*
X25804833Y-71017977D01*
X25757214Y-70941786D01*
X25757214Y-70789405D01*
X25804833Y-70713215D01*
X25900071Y-70675120D01*
X25995310Y-70675120D01*
X26090548Y-71056072D01*
X26376262Y-70027501D02*
X26423881Y-70103691D01*
X26423881Y-70256072D01*
X26376262Y-70332263D01*
X26281024Y-70370358D01*
X25900071Y-70370358D01*
X25804833Y-70332263D01*
X25757214Y-70256072D01*
X25757214Y-70103691D01*
X25804833Y-70027501D01*
X25900071Y-69989406D01*
X25995310Y-69989406D01*
X26090548Y-70370358D01*
X26423881Y-69303692D02*
X25423881Y-69303692D01*
X26376262Y-69303692D02*
X26423881Y-69379882D01*
X26423881Y-69532263D01*
X26376262Y-69608454D01*
X26328643Y-69646549D01*
X26233405Y-69684644D01*
X25947690Y-69684644D01*
X25852452Y-69646549D01*
X25804833Y-69608454D01*
X25757214Y-69532263D01*
X25757214Y-69379882D01*
X25804833Y-69303692D01*
X26423881Y-68922739D02*
X25423881Y-68922739D01*
X25804833Y-68922739D02*
X25757214Y-68846548D01*
X25757214Y-68694167D01*
X25804833Y-68617977D01*
X25852452Y-68579882D01*
X25947690Y-68541786D01*
X26233405Y-68541786D01*
X26328643Y-68579882D01*
X26376262Y-68617977D01*
X26423881Y-68694167D01*
X26423881Y-68846548D01*
X26376262Y-68922739D01*
X26423881Y-67856072D02*
X25900071Y-67856072D01*
X25804833Y-67894167D01*
X25757214Y-67970357D01*
X25757214Y-68122738D01*
X25804833Y-68198929D01*
X26376262Y-67856072D02*
X26423881Y-67932262D01*
X26423881Y-68122738D01*
X26376262Y-68198929D01*
X26281024Y-68237024D01*
X26185786Y-68237024D01*
X26090548Y-68198929D01*
X26042929Y-68122738D01*
X26042929Y-67932262D01*
X25995310Y-67856072D01*
X26376262Y-67132262D02*
X26423881Y-67208452D01*
X26423881Y-67360833D01*
X26376262Y-67437024D01*
X26328643Y-67475119D01*
X26233405Y-67513214D01*
X25947690Y-67513214D01*
X25852452Y-67475119D01*
X25804833Y-67437024D01*
X25757214Y-67360833D01*
X25757214Y-67208452D01*
X25804833Y-67132262D01*
X26423881Y-66789405D02*
X25423881Y-66789405D01*
X26042929Y-66713214D02*
X26423881Y-66484643D01*
X25757214Y-66484643D02*
X26138167Y-66789405D01*
X26376262Y-65570357D02*
X26423881Y-65494167D01*
X26423881Y-65341786D01*
X26376262Y-65265595D01*
X26281024Y-65227500D01*
X26233405Y-65227500D01*
X26138167Y-65265595D01*
X26090548Y-65341786D01*
X26090548Y-65456071D01*
X26042929Y-65532262D01*
X25947690Y-65570357D01*
X25900071Y-65570357D01*
X25804833Y-65532262D01*
X25757214Y-65456071D01*
X25757214Y-65341786D01*
X25804833Y-65265595D01*
X26423881Y-64884643D02*
X25423881Y-64884643D01*
X26423881Y-64541786D02*
X25900071Y-64541786D01*
X25804833Y-64579881D01*
X25757214Y-64656071D01*
X25757214Y-64770357D01*
X25804833Y-64846548D01*
X25852452Y-64884643D01*
X26423881Y-64160833D02*
X25757214Y-64160833D01*
X25423881Y-64160833D02*
X25471500Y-64198928D01*
X25519119Y-64160833D01*
X25471500Y-64122738D01*
X25423881Y-64160833D01*
X25519119Y-64160833D01*
X26376262Y-63475119D02*
X26423881Y-63551309D01*
X26423881Y-63703690D01*
X26376262Y-63779881D01*
X26281024Y-63817976D01*
X25900071Y-63817976D01*
X25804833Y-63779881D01*
X25757214Y-63703690D01*
X25757214Y-63551309D01*
X25804833Y-63475119D01*
X25900071Y-63437024D01*
X25995310Y-63437024D01*
X26090548Y-63817976D01*
X26423881Y-62979881D02*
X26376262Y-63056072D01*
X26281024Y-63094167D01*
X25423881Y-63094167D01*
X26423881Y-62332262D02*
X25423881Y-62332262D01*
X26376262Y-62332262D02*
X26423881Y-62408452D01*
X26423881Y-62560833D01*
X26376262Y-62637024D01*
X26328643Y-62675119D01*
X26233405Y-62713214D01*
X25947690Y-62713214D01*
X25852452Y-62675119D01*
X25804833Y-62637024D01*
X25757214Y-62560833D01*
X25757214Y-62408452D01*
X25804833Y-62332262D01*
X25757214Y-61417975D02*
X26423881Y-61227499D01*
X25757214Y-61037023D01*
X25423881Y-60579880D02*
X25423881Y-60503689D01*
X25471500Y-60427499D01*
X25519119Y-60389404D01*
X25614357Y-60351308D01*
X25804833Y-60313213D01*
X26042929Y-60313213D01*
X26233405Y-60351308D01*
X26328643Y-60389404D01*
X26376262Y-60427499D01*
X26423881Y-60503689D01*
X26423881Y-60579880D01*
X26376262Y-60656070D01*
X26328643Y-60694166D01*
X26233405Y-60732261D01*
X26042929Y-60770356D01*
X25804833Y-60770356D01*
X25614357Y-60732261D01*
X25519119Y-60694166D01*
X25471500Y-60656070D01*
X25423881Y-60579880D01*
X26328643Y-59970356D02*
X26376262Y-59932261D01*
X26423881Y-59970356D01*
X26376262Y-60008451D01*
X26328643Y-59970356D01*
X26423881Y-59970356D01*
X26423881Y-59170356D02*
X26423881Y-59627499D01*
X26423881Y-59398928D02*
X25423881Y-59398928D01*
X25566738Y-59475118D01*
X25661976Y-59551309D01*
X25709595Y-59627499D01*
D10*
X19986500Y-23232000D02*
X17986500Y-23232000D01*
X17986500Y-25282000D02*
X19986500Y-25282000D01*
X18050000Y-38803000D02*
X20050000Y-38803000D01*
X20050000Y-40953000D02*
X18050000Y-40953000D01*
X18050000Y-36263000D02*
X20050000Y-36263000D01*
X20050000Y-38413000D02*
X18050000Y-38413000D01*
X17986500Y-28262000D02*
X19986500Y-28262000D01*
X19986500Y-30412000D02*
X17986500Y-30412000D01*
X18177000Y-35823000D02*
X20177000Y-35823000D01*
X20177000Y-33773000D02*
X18177000Y-33773000D01*
X17986500Y-27822000D02*
X19986500Y-27822000D01*
X19986500Y-25772000D02*
X17986500Y-25772000D01*
X28781500Y-27822000D02*
X30781500Y-27822000D01*
X30781500Y-25772000D02*
X28781500Y-25772000D01*
X34616500Y-26527000D02*
X34616500Y-24527000D01*
X32566500Y-24527000D02*
X32566500Y-26527000D01*
X32686500Y-39107000D02*
X30686500Y-39107000D01*
X30686500Y-41157000D02*
X32686500Y-41157000D01*
X28241500Y-39107000D02*
X26241500Y-39107000D01*
X26241500Y-41157000D02*
X28241500Y-41157000D01*
X29527500Y-38862000D02*
X24701500Y-38862000D01*
X24701500Y-38862000D02*
X24701500Y-28702000D01*
X24701500Y-28702000D02*
X29527500Y-28702000D01*
X29527500Y-28702000D02*
X29527500Y-38862000D01*
X27749500Y-28702000D02*
X27749500Y-29337000D01*
X27749500Y-29337000D02*
X26479500Y-29337000D01*
X26479500Y-29337000D02*
X26479500Y-28702000D01*
X30781500Y-25332000D02*
X28781500Y-25332000D01*
X28781500Y-23182000D02*
X30781500Y-23182000D01*
X31881500Y-35417000D02*
X31881500Y-33417000D01*
X34031500Y-33417000D02*
X34031500Y-35417000D01*
X25141500Y-25162000D02*
X25141500Y-27162000D01*
X22991500Y-27162000D02*
X22991500Y-25162000D01*
X32516500Y-30972000D02*
X32516500Y-28972000D01*
X34666500Y-28972000D02*
X34666500Y-30972000D01*
D12*
X29971500Y-14542000D02*
X21971500Y-14542000D01*
X21971500Y-14542000D02*
X21971500Y-22542000D01*
X21971500Y-22542000D02*
X29971500Y-22542000D01*
X29971500Y-22542000D02*
X29971500Y-14542000D01*
D10*
X20891500Y-76962000D02*
X20891500Y-46482000D01*
X20891500Y-46482000D02*
X31051500Y-46482000D01*
X31051500Y-46482000D02*
X31051500Y-76962000D01*
X31051500Y-76962000D02*
X20891500Y-76962000D01*
X28321000Y-54610000D02*
G75*
G03X28321000Y-54610000I-2286000J0D01*
G01*
X28321000Y-72390000D02*
G75*
G03X28321000Y-72390000I-2286000J0D01*
G01*
X18177000Y-33410000D02*
X20177000Y-33410000D01*
X20177000Y-31360000D02*
X18177000Y-31360000D01*
X21931334Y-24487143D02*
X21883715Y-24534762D01*
X21740858Y-24582381D01*
X21645620Y-24582381D01*
X21502762Y-24534762D01*
X21407524Y-24439524D01*
X21359905Y-24344286D01*
X21312286Y-24153810D01*
X21312286Y-24010952D01*
X21359905Y-23820476D01*
X21407524Y-23725238D01*
X21502762Y-23630000D01*
X21645620Y-23582381D01*
X21740858Y-23582381D01*
X21883715Y-23630000D01*
X21931334Y-23677619D01*
X22883715Y-24582381D02*
X22312286Y-24582381D01*
X22598000Y-24582381D02*
X22598000Y-23582381D01*
X22502762Y-23725238D01*
X22407524Y-23820476D01*
X22312286Y-23868095D01*
X22121834Y-41473381D02*
X21788500Y-40997190D01*
X21550405Y-41473381D02*
X21550405Y-40473381D01*
X21931358Y-40473381D01*
X22026596Y-40521000D01*
X22074215Y-40568619D01*
X22121834Y-40663857D01*
X22121834Y-40806714D01*
X22074215Y-40901952D01*
X22026596Y-40949571D01*
X21931358Y-40997190D01*
X21550405Y-40997190D01*
X23074215Y-41473381D02*
X22502786Y-41473381D01*
X22788500Y-41473381D02*
X22788500Y-40473381D01*
X22693262Y-40616238D01*
X22598024Y-40711476D01*
X22502786Y-40759095D01*
X22121834Y-37663381D02*
X21788500Y-37187190D01*
X21550405Y-37663381D02*
X21550405Y-36663381D01*
X21931358Y-36663381D01*
X22026596Y-36711000D01*
X22074215Y-36758619D01*
X22121834Y-36853857D01*
X22121834Y-36996714D01*
X22074215Y-37091952D01*
X22026596Y-37139571D01*
X21931358Y-37187190D01*
X21550405Y-37187190D01*
X22502786Y-36758619D02*
X22550405Y-36711000D01*
X22645643Y-36663381D01*
X22883739Y-36663381D01*
X22978977Y-36711000D01*
X23026596Y-36758619D01*
X23074215Y-36853857D01*
X23074215Y-36949095D01*
X23026596Y-37091952D01*
X22455167Y-37663381D01*
X23074215Y-37663381D01*
X22058334Y-29662381D02*
X21725000Y-29186190D01*
X21486905Y-29662381D02*
X21486905Y-28662381D01*
X21867858Y-28662381D01*
X21963096Y-28710000D01*
X22010715Y-28757619D01*
X22058334Y-28852857D01*
X22058334Y-28995714D01*
X22010715Y-29090952D01*
X21963096Y-29138571D01*
X21867858Y-29186190D01*
X21486905Y-29186190D01*
X22391667Y-28662381D02*
X23010715Y-28662381D01*
X22677381Y-29043333D01*
X22820239Y-29043333D01*
X22915477Y-29090952D01*
X22963096Y-29138571D01*
X23010715Y-29233810D01*
X23010715Y-29471905D01*
X22963096Y-29567143D01*
X22915477Y-29614762D01*
X22820239Y-29662381D01*
X22534524Y-29662381D01*
X22439286Y-29614762D01*
X22391667Y-29567143D01*
X22248834Y-35663143D02*
X22201215Y-35710762D01*
X22058358Y-35758381D01*
X21963120Y-35758381D01*
X21820262Y-35710762D01*
X21725024Y-35615524D01*
X21677405Y-35520286D01*
X21629786Y-35329810D01*
X21629786Y-35186952D01*
X21677405Y-34996476D01*
X21725024Y-34901238D01*
X21820262Y-34806000D01*
X21963120Y-34758381D01*
X22058358Y-34758381D01*
X22201215Y-34806000D01*
X22248834Y-34853619D01*
X22629786Y-34853619D02*
X22677405Y-34806000D01*
X22772643Y-34758381D01*
X23010739Y-34758381D01*
X23105977Y-34806000D01*
X23153596Y-34853619D01*
X23201215Y-34948857D01*
X23201215Y-35044095D01*
X23153596Y-35186952D01*
X22582167Y-35758381D01*
X23201215Y-35758381D01*
X22058334Y-27027143D02*
X22010715Y-27074762D01*
X21867858Y-27122381D01*
X21772620Y-27122381D01*
X21629762Y-27074762D01*
X21534524Y-26979524D01*
X21486905Y-26884286D01*
X21439286Y-26693810D01*
X21439286Y-26550952D01*
X21486905Y-26360476D01*
X21534524Y-26265238D01*
X21629762Y-26170000D01*
X21772620Y-26122381D01*
X21867858Y-26122381D01*
X22010715Y-26170000D01*
X22058334Y-26217619D01*
X22391667Y-26122381D02*
X23010715Y-26122381D01*
X22677381Y-26503333D01*
X22820239Y-26503333D01*
X22915477Y-26550952D01*
X22963096Y-26598571D01*
X23010715Y-26693810D01*
X23010715Y-26931905D01*
X22963096Y-27027143D01*
X22915477Y-27074762D01*
X22820239Y-27122381D01*
X22534524Y-27122381D01*
X22439286Y-27074762D01*
X22391667Y-27027143D01*
X25868334Y-27662143D02*
X25820715Y-27709762D01*
X25677858Y-27757381D01*
X25582620Y-27757381D01*
X25439762Y-27709762D01*
X25344524Y-27614524D01*
X25296905Y-27519286D01*
X25249286Y-27328810D01*
X25249286Y-27185952D01*
X25296905Y-26995476D01*
X25344524Y-26900238D01*
X25439762Y-26805000D01*
X25582620Y-26757381D01*
X25677858Y-26757381D01*
X25820715Y-26805000D01*
X25868334Y-26852619D01*
X26725477Y-27090714D02*
X26725477Y-27757381D01*
X26487381Y-26709762D02*
X26249286Y-27424048D01*
X26868334Y-27424048D01*
X34012143Y-22391666D02*
X34059762Y-22439285D01*
X34107381Y-22582142D01*
X34107381Y-22677380D01*
X34059762Y-22820238D01*
X33964524Y-22915476D01*
X33869286Y-22963095D01*
X33678810Y-23010714D01*
X33535952Y-23010714D01*
X33345476Y-22963095D01*
X33250238Y-22915476D01*
X33155000Y-22820238D01*
X33107381Y-22677380D01*
X33107381Y-22582142D01*
X33155000Y-22439285D01*
X33202619Y-22391666D01*
X33107381Y-21486904D02*
X33107381Y-21963095D01*
X33583571Y-22010714D01*
X33535952Y-21963095D01*
X33488333Y-21867857D01*
X33488333Y-21629761D01*
X33535952Y-21534523D01*
X33583571Y-21486904D01*
X33678810Y-21439285D01*
X33916905Y-21439285D01*
X34012143Y-21486904D01*
X34059762Y-21534523D01*
X34107381Y-21629761D01*
X34107381Y-21867857D01*
X34059762Y-21963095D01*
X34012143Y-22010714D01*
X34758334Y-40362143D02*
X34710715Y-40409762D01*
X34567858Y-40457381D01*
X34472620Y-40457381D01*
X34329762Y-40409762D01*
X34234524Y-40314524D01*
X34186905Y-40219286D01*
X34139286Y-40028810D01*
X34139286Y-39885952D01*
X34186905Y-39695476D01*
X34234524Y-39600238D01*
X34329762Y-39505000D01*
X34472620Y-39457381D01*
X34567858Y-39457381D01*
X34710715Y-39505000D01*
X34758334Y-39552619D01*
X35615477Y-39457381D02*
X35425000Y-39457381D01*
X35329762Y-39505000D01*
X35282143Y-39552619D01*
X35186905Y-39695476D01*
X35139286Y-39885952D01*
X35139286Y-40266905D01*
X35186905Y-40362143D01*
X35234524Y-40409762D01*
X35329762Y-40457381D01*
X35520239Y-40457381D01*
X35615477Y-40409762D01*
X35663096Y-40362143D01*
X35710715Y-40266905D01*
X35710715Y-40028810D01*
X35663096Y-39933571D01*
X35615477Y-39885952D01*
X35520239Y-39838333D01*
X35329762Y-39838333D01*
X35234524Y-39885952D01*
X35186905Y-39933571D01*
X35139286Y-40028810D01*
X27138334Y-42267143D02*
X27090715Y-42314762D01*
X26947858Y-42362381D01*
X26852620Y-42362381D01*
X26709762Y-42314762D01*
X26614524Y-42219524D01*
X26566905Y-42124286D01*
X26519286Y-41933810D01*
X26519286Y-41790952D01*
X26566905Y-41600476D01*
X26614524Y-41505238D01*
X26709762Y-41410000D01*
X26852620Y-41362381D01*
X26947858Y-41362381D01*
X27090715Y-41410000D01*
X27138334Y-41457619D01*
X27471667Y-41362381D02*
X28138334Y-41362381D01*
X27709762Y-42362381D01*
X28963881Y-34758190D02*
X27963881Y-34758190D01*
X28868643Y-33710571D02*
X28916262Y-33758190D01*
X28963881Y-33901047D01*
X28963881Y-33996285D01*
X28916262Y-34139143D01*
X28821024Y-34234381D01*
X28725786Y-34282000D01*
X28535310Y-34329619D01*
X28392452Y-34329619D01*
X28201976Y-34282000D01*
X28106738Y-34234381D01*
X28011500Y-34139143D01*
X27963881Y-33996285D01*
X27963881Y-33901047D01*
X28011500Y-33758190D01*
X28059119Y-33710571D01*
X28963881Y-32758190D02*
X28963881Y-33329619D01*
X28963881Y-33043905D02*
X27963881Y-33043905D01*
X28106738Y-33139143D01*
X28201976Y-33234381D01*
X28249595Y-33329619D01*
X26503334Y-24582381D02*
X26170000Y-24106190D01*
X25931905Y-24582381D02*
X25931905Y-23582381D01*
X26312858Y-23582381D01*
X26408096Y-23630000D01*
X26455715Y-23677619D01*
X26503334Y-23772857D01*
X26503334Y-23915714D01*
X26455715Y-24010952D01*
X26408096Y-24058571D01*
X26312858Y-24106190D01*
X25931905Y-24106190D01*
X27360477Y-23915714D02*
X27360477Y-24582381D01*
X27122381Y-23534762D02*
X26884286Y-24249048D01*
X27503334Y-24249048D01*
X35708881Y-34583666D02*
X35232690Y-34917000D01*
X35708881Y-35155095D02*
X34708881Y-35155095D01*
X34708881Y-34774142D01*
X34756500Y-34678904D01*
X34804119Y-34631285D01*
X34899357Y-34583666D01*
X35042214Y-34583666D01*
X35137452Y-34631285D01*
X35185071Y-34678904D01*
X35232690Y-34774142D01*
X35232690Y-35155095D01*
X34708881Y-33678904D02*
X34708881Y-34155095D01*
X35185071Y-34202714D01*
X35137452Y-34155095D01*
X35089833Y-34059857D01*
X35089833Y-33821761D01*
X35137452Y-33726523D01*
X35185071Y-33678904D01*
X35280310Y-33631285D01*
X35518405Y-33631285D01*
X35613643Y-33678904D01*
X35661262Y-33726523D01*
X35708881Y-33821761D01*
X35708881Y-34059857D01*
X35661262Y-34155095D01*
X35613643Y-34202714D01*
X26487381Y-26201666D02*
X26011190Y-26535000D01*
X26487381Y-26773095D02*
X25487381Y-26773095D01*
X25487381Y-26392142D01*
X25535000Y-26296904D01*
X25582619Y-26249285D01*
X25677857Y-26201666D01*
X25820714Y-26201666D01*
X25915952Y-26249285D01*
X25963571Y-26296904D01*
X26011190Y-26392142D01*
X26011190Y-26773095D01*
X25487381Y-25344523D02*
X25487381Y-25535000D01*
X25535000Y-25630238D01*
X25582619Y-25677857D01*
X25725476Y-25773095D01*
X25915952Y-25820714D01*
X26296905Y-25820714D01*
X26392143Y-25773095D01*
X26439762Y-25725476D01*
X26487381Y-25630238D01*
X26487381Y-25439761D01*
X26439762Y-25344523D01*
X26392143Y-25296904D01*
X26296905Y-25249285D01*
X26058810Y-25249285D01*
X25963571Y-25296904D01*
X25915952Y-25344523D01*
X25868333Y-25439761D01*
X25868333Y-25630238D01*
X25915952Y-25725476D01*
X25963571Y-25773095D01*
X26058810Y-25820714D01*
X32202381Y-30011666D02*
X31726190Y-30345000D01*
X32202381Y-30583095D02*
X31202381Y-30583095D01*
X31202381Y-30202142D01*
X31250000Y-30106904D01*
X31297619Y-30059285D01*
X31392857Y-30011666D01*
X31535714Y-30011666D01*
X31630952Y-30059285D01*
X31678571Y-30106904D01*
X31726190Y-30202142D01*
X31726190Y-30583095D01*
X31202381Y-29678333D02*
X31202381Y-29011666D01*
X32202381Y-29440238D01*
D13*
X31000096Y-16969619D02*
X31000096Y-15953619D01*
X31387143Y-15953619D01*
X31483905Y-16002000D01*
X31532286Y-16050381D01*
X31580667Y-16147143D01*
X31580667Y-16292286D01*
X31532286Y-16389048D01*
X31483905Y-16437429D01*
X31387143Y-16485810D01*
X31000096Y-16485810D01*
X32548286Y-16969619D02*
X31967715Y-16969619D01*
X32258001Y-16969619D02*
X32258001Y-15953619D01*
X32161239Y-16098762D01*
X32064477Y-16195524D01*
X31967715Y-16243905D01*
X20882429Y-21656524D02*
X20882429Y-21995190D01*
X21414619Y-21995190D02*
X20398619Y-21995190D01*
X20398619Y-21511381D01*
X20882429Y-21124333D02*
X20882429Y-20785667D01*
X21414619Y-20640524D02*
X21414619Y-21124333D01*
X20398619Y-21124333D01*
X20398619Y-20640524D01*
X20882429Y-20205095D02*
X20882429Y-19866429D01*
X21414619Y-19721286D02*
X21414619Y-20205095D01*
X20398619Y-20205095D01*
X20398619Y-19721286D01*
X21414619Y-19285857D02*
X20398619Y-19285857D01*
X20398619Y-19043952D01*
X20447000Y-18898810D01*
X20543762Y-18802048D01*
X20640524Y-18753667D01*
X20834048Y-18705286D01*
X20979190Y-18705286D01*
X21172714Y-18753667D01*
X21269476Y-18802048D01*
X21366238Y-18898810D01*
X21414619Y-19043952D01*
X21414619Y-19285857D01*
X20882429Y-17931191D02*
X20930810Y-17786048D01*
X20979190Y-17737667D01*
X21075952Y-17689286D01*
X21221095Y-17689286D01*
X21317857Y-17737667D01*
X21366238Y-17786048D01*
X21414619Y-17882810D01*
X21414619Y-18269857D01*
X20398619Y-18269857D01*
X20398619Y-17931191D01*
X20447000Y-17834429D01*
X20495381Y-17786048D01*
X20592143Y-17737667D01*
X20688905Y-17737667D01*
X20785667Y-17786048D01*
X20834048Y-17834429D01*
X20882429Y-17931191D01*
X20882429Y-18269857D01*
X21124333Y-17302238D02*
X21124333Y-16818429D01*
X21414619Y-17399000D02*
X20398619Y-17060333D01*
X21414619Y-16721667D01*
X21317857Y-15802429D02*
X21366238Y-15850810D01*
X21414619Y-15995953D01*
X21414619Y-16092715D01*
X21366238Y-16237857D01*
X21269476Y-16334619D01*
X21172714Y-16383000D01*
X20979190Y-16431381D01*
X20834048Y-16431381D01*
X20640524Y-16383000D01*
X20543762Y-16334619D01*
X20447000Y-16237857D01*
X20398619Y-16092715D01*
X20398619Y-15995953D01*
X20447000Y-15850810D01*
X20495381Y-15802429D01*
X21414619Y-15367000D02*
X20398619Y-15367000D01*
X21414619Y-14786429D02*
X20834048Y-15221857D01*
X20398619Y-14786429D02*
X20979190Y-15367000D01*
D10*
X27876643Y-74362571D02*
X27876643Y-75576857D01*
X27948071Y-75719714D01*
X28019500Y-75791143D01*
X28162357Y-75862571D01*
X28448071Y-75862571D01*
X28590929Y-75791143D01*
X28662357Y-75719714D01*
X28733786Y-75576857D01*
X28733786Y-74362571D01*
X29376643Y-74505429D02*
X29448072Y-74434000D01*
X29590929Y-74362571D01*
X29948072Y-74362571D01*
X30090929Y-74434000D01*
X30162358Y-74505429D01*
X30233786Y-74648286D01*
X30233786Y-74791143D01*
X30162358Y-75005429D01*
X29305215Y-75862571D01*
X30233786Y-75862571D01*
X24701667Y-52014381D02*
X24368333Y-51538190D01*
X24130238Y-52014381D02*
X24130238Y-51014381D01*
X24511191Y-51014381D01*
X24606429Y-51062000D01*
X24654048Y-51109619D01*
X24701667Y-51204857D01*
X24701667Y-51347714D01*
X24654048Y-51442952D01*
X24606429Y-51490571D01*
X24511191Y-51538190D01*
X24130238Y-51538190D01*
X25130238Y-51490571D02*
X25463572Y-51490571D01*
X25606429Y-52014381D02*
X25130238Y-52014381D01*
X25130238Y-51014381D01*
X25606429Y-51014381D01*
X26368334Y-51490571D02*
X26035000Y-51490571D01*
X26035000Y-52014381D02*
X26035000Y-51014381D01*
X26511191Y-51014381D01*
X27035000Y-51014381D02*
X27035000Y-51252476D01*
X26796905Y-51157238D02*
X27035000Y-51252476D01*
X27273096Y-51157238D01*
X26892143Y-51442952D02*
X27035000Y-51252476D01*
X27177858Y-51442952D01*
X27796905Y-51014381D02*
X27796905Y-51252476D01*
X27558810Y-51157238D02*
X27796905Y-51252476D01*
X28035001Y-51157238D01*
X27654048Y-51442952D02*
X27796905Y-51252476D01*
X27939763Y-51442952D01*
X24701667Y-69794381D02*
X24368333Y-69318190D01*
X24130238Y-69794381D02*
X24130238Y-68794381D01*
X24511191Y-68794381D01*
X24606429Y-68842000D01*
X24654048Y-68889619D01*
X24701667Y-68984857D01*
X24701667Y-69127714D01*
X24654048Y-69222952D01*
X24606429Y-69270571D01*
X24511191Y-69318190D01*
X24130238Y-69318190D01*
X25130238Y-69270571D02*
X25463572Y-69270571D01*
X25606429Y-69794381D02*
X25130238Y-69794381D01*
X25130238Y-68794381D01*
X25606429Y-68794381D01*
X26368334Y-69270571D02*
X26035000Y-69270571D01*
X26035000Y-69794381D02*
X26035000Y-68794381D01*
X26511191Y-68794381D01*
X27035000Y-68794381D02*
X27035000Y-69032476D01*
X26796905Y-68937238D02*
X27035000Y-69032476D01*
X27273096Y-68937238D01*
X26892143Y-69222952D02*
X27035000Y-69032476D01*
X27177858Y-69222952D01*
X27796905Y-68794381D02*
X27796905Y-69032476D01*
X27558810Y-68937238D02*
X27796905Y-69032476D01*
X28035001Y-68937238D01*
X27654048Y-69222952D02*
X27796905Y-69032476D01*
X27939763Y-69222952D01*
X16867143Y-32551666D02*
X16914762Y-32599285D01*
X16962381Y-32742142D01*
X16962381Y-32837380D01*
X16914762Y-32980238D01*
X16819524Y-33075476D01*
X16724286Y-33123095D01*
X16533810Y-33170714D01*
X16390952Y-33170714D01*
X16200476Y-33123095D01*
X16105238Y-33075476D01*
X16010000Y-32980238D01*
X15962381Y-32837380D01*
X15962381Y-32742142D01*
X16010000Y-32599285D01*
X16057619Y-32551666D01*
X16390952Y-31980238D02*
X16343333Y-32075476D01*
X16295714Y-32123095D01*
X16200476Y-32170714D01*
X16152857Y-32170714D01*
X16057619Y-32123095D01*
X16010000Y-32075476D01*
X15962381Y-31980238D01*
X15962381Y-31789761D01*
X16010000Y-31694523D01*
X16057619Y-31646904D01*
X16152857Y-31599285D01*
X16200476Y-31599285D01*
X16295714Y-31646904D01*
X16343333Y-31694523D01*
X16390952Y-31789761D01*
X16390952Y-31980238D01*
X16438571Y-32075476D01*
X16486190Y-32123095D01*
X16581429Y-32170714D01*
X16771905Y-32170714D01*
X16867143Y-32123095D01*
X16914762Y-32075476D01*
X16962381Y-31980238D01*
X16962381Y-31789761D01*
X16914762Y-31694523D01*
X16867143Y-31646904D01*
X16771905Y-31599285D01*
X16581429Y-31599285D01*
X16486190Y-31646904D01*
X16438571Y-31694523D01*
X16390952Y-31789761D01*
M02*
