G04 #@! TF.FileFunction,Soldermask,Top*
%FSLAX46Y46*%
G04 Gerber Fmt 4.6, Leading zero omitted, Abs format (unit mm)*
G04 Created by KiCad (PCBNEW 4.0.0-rc2-1-stable) date Friday, February 19, 2016 'amt' 09:33:00 am*
%MOMM*%
G01*
G04 APERTURE LIST*
%ADD10C,0.150000*%
%ADD11R,1.508000X2.108000*%
%ADD12R,1.408000X2.208000*%
%ADD13R,2.108000X1.508000*%
%ADD14R,1.651000X1.016000*%
%ADD15R,2.208000X1.408000*%
%ADD16C,2.908000*%
%ADD17C,3.008000*%
%ADD18C,2.408000*%
%ADD19C,4.572000*%
G04 APERTURE END LIST*
D10*
D11*
X17486500Y-24257000D03*
X20486500Y-24257000D03*
D12*
X20436500Y-38862000D03*
X17536500Y-38862000D03*
X20436500Y-36322000D03*
X17536500Y-36322000D03*
X20436500Y-29337000D03*
X17536500Y-29337000D03*
D11*
X20486500Y-33782000D03*
X17486500Y-33782000D03*
X20486500Y-26797000D03*
X17486500Y-26797000D03*
X31281500Y-26797000D03*
X28281500Y-26797000D03*
D13*
X33591500Y-24027000D03*
X33591500Y-27027000D03*
D11*
X30186500Y-40132000D03*
X33186500Y-40132000D03*
X25741500Y-40132000D03*
X28741500Y-40132000D03*
D14*
X23939500Y-29972000D03*
X23939500Y-31242000D03*
X23939500Y-32512000D03*
X23939500Y-33782000D03*
X23939500Y-35052000D03*
X23939500Y-36322000D03*
X23939500Y-37592000D03*
X30289500Y-37592000D03*
X30289500Y-36322000D03*
X30289500Y-33782000D03*
X30289500Y-32512000D03*
X30289500Y-31242000D03*
X30289500Y-29972000D03*
X30289500Y-35052000D03*
D12*
X28331500Y-24257000D03*
X31231500Y-24257000D03*
D15*
X32956500Y-32967000D03*
X32956500Y-35867000D03*
X24066500Y-27612000D03*
X24066500Y-24712000D03*
X33591500Y-28522000D03*
X33591500Y-31422000D03*
D16*
X25971500Y-18542000D03*
D17*
X23431500Y-16002000D03*
X28511500Y-16002000D03*
X28511500Y-21082000D03*
X23431500Y-21082000D03*
D18*
X33591500Y-74422000D03*
X33591500Y-71882000D03*
X33591500Y-69342000D03*
X33591500Y-66802000D03*
X33591500Y-64262000D03*
X33591500Y-61722000D03*
X33591500Y-59182000D03*
X33591500Y-56642000D03*
X33591500Y-54102000D03*
X33591500Y-51562000D03*
X33591500Y-49022000D03*
X33591500Y-46482000D03*
X33591500Y-43942000D03*
X18351500Y-43942000D03*
X18351500Y-46482000D03*
X18351500Y-49022000D03*
X18351500Y-51562000D03*
X18351500Y-54102000D03*
X18351500Y-56642000D03*
X18351500Y-59182000D03*
X18351500Y-61722000D03*
X18351500Y-64262000D03*
X18351500Y-66802000D03*
X18351500Y-69342000D03*
X18351500Y-71882000D03*
X18351500Y-74422000D03*
X18351500Y-76962000D03*
X33591500Y-76962000D03*
D19*
X26035000Y-54610000D03*
X26035000Y-72390000D03*
M02*
