M48
;DRILL file {KiCad 4.0.0-rc2-1-stable} date Friday, February 19, 2016 'amt' 09:33:02 am
;FORMAT={-:-/ absolute / inch / decimal}
FMAT,2
INCH,TZ
T1C0.015
T2C0.031
T3C0.059
T4C0.063
T5C0.120
%
G90
G05
M72
T1
X0.855Y-1.25
X0.8675Y-1.5075
X0.8725Y-1.2975
X1.1725Y-1.905
X1.2525Y-1.2325
X1.2725Y-1.355
T2
X0.7225Y-1.73
X0.7225Y-1.83
X0.7225Y-1.93
X0.7225Y-2.03
X0.7225Y-2.13
X0.7225Y-2.23
X0.7225Y-2.33
X0.7225Y-2.43
X0.7225Y-2.53
X0.7225Y-2.63
X0.7225Y-2.73
X0.7225Y-2.83
X0.7225Y-2.93
X0.7225Y-3.03
X1.3225Y-1.73
X1.3225Y-1.83
X1.3225Y-1.93
X1.3225Y-2.03
X1.3225Y-2.13
X1.3225Y-2.23
X1.3225Y-2.33
X1.3225Y-2.43
X1.3225Y-2.53
X1.3225Y-2.63
X1.3225Y-2.73
X1.3225Y-2.83
X1.3225Y-2.93
X1.3225Y-3.03
T3
X1.0225Y-0.73
T4
X0.9225Y-0.63
X0.9225Y-0.83
X1.1225Y-0.63
X1.1225Y-0.83
T5
X1.025Y-2.15
X1.025Y-2.85
T0
M30
