M48
;DRILL file {KiCad 4.0.1-stable} date 7/14/2016 5:01:42 PM
;FORMAT={2:4/ absolute / inch / suppress leading zeros}
FMAT,2
INCH,TZ
T1C0.031
T2C0.039
T3C0.059
T4C0.063
T5C0.120
%
G90
G05
M72
T1
X9350Y-16890
X9350Y-21142
T2
X7200Y-17300
X7200Y-18300
X7200Y-19300
X7200Y-20300
X7200Y-21300
X7200Y-22300
X7200Y-23300
X7200Y-24300
X7200Y-25300
X7200Y-26300
X7200Y-27300
X7200Y-28300
X7200Y-29300
X7200Y-30300
X8200Y-25300
X8200Y-26300
X8200Y-27300
X13200Y-17300
X13200Y-18300
X13200Y-19300
X13200Y-20300
X13200Y-21300
X13200Y-22300
X13200Y-23300
X13200Y-24300
X13200Y-25300
X13200Y-26300
X13200Y-27300
X13200Y-28300
X13200Y-29300
X13200Y-30300
T3
X10236Y-7087
X19685Y-7087
T4
X9236Y-6087
X9236Y-8087
X11236Y-6087
X11236Y-8087
X18685Y-6087
X18685Y-8087
X20685Y-6087
X20685Y-8087
T5
X6496Y-6496
X6500Y-32500
X23228Y-6496
X23228Y-32480
T0
M30
