G04 #@! TF.FileFunction,Copper,L2,Bot,Signal*
%FSLAX46Y46*%
G04 Gerber Fmt 4.6, Leading zero omitted, Abs format (unit mm)*
G04 Created by KiCad (PCBNEW 4.0.1-stable) date 7/14/2016 5:01:39 PM*
%MOMM*%
G01*
G04 APERTURE LIST*
%ADD10C,0.150000*%
%ADD11C,2.400000*%
%ADD12C,2.500000*%
%ADD13C,4.064000*%
%ADD14C,1.900000*%
%ADD15C,1.100000*%
%ADD16C,0.600000*%
G04 APERTURE END LIST*
D10*
D11*
X26000000Y-18000000D03*
D12*
X23460000Y-15460000D03*
X28540000Y-15460000D03*
X28540000Y-20540000D03*
X23460000Y-20540000D03*
D13*
X16510000Y-82550000D03*
X59000000Y-82500000D03*
X59000000Y-16500000D03*
X16500000Y-16500000D03*
D14*
X20828000Y-69342000D03*
X20828000Y-66802000D03*
X20828000Y-64262000D03*
X33528000Y-74422000D03*
X33528000Y-71882000D03*
X33528000Y-69342000D03*
X33528000Y-66802000D03*
X33528000Y-64262000D03*
X33528000Y-61722000D03*
X33528000Y-59182000D03*
X33528000Y-56642000D03*
X33528000Y-54102000D03*
X33528000Y-51562000D03*
X33528000Y-49022000D03*
X33528000Y-46482000D03*
X33528000Y-43942000D03*
X18288000Y-43942000D03*
X18288000Y-46482000D03*
X18288000Y-49022000D03*
X18288000Y-51562000D03*
X18288000Y-54102000D03*
X18288000Y-56642000D03*
X18288000Y-59182000D03*
X18288000Y-61722000D03*
X18288000Y-64262000D03*
X18288000Y-66802000D03*
X18288000Y-69342000D03*
X18288000Y-71882000D03*
X18288000Y-74422000D03*
X18288000Y-76962000D03*
X33528000Y-76962000D03*
D11*
X50000000Y-18000000D03*
D12*
X47460000Y-15460000D03*
X52540000Y-15460000D03*
X52540000Y-20540000D03*
X47460000Y-20540000D03*
D15*
X23750000Y-53700000D03*
X23750000Y-42900000D03*
D16*
X23750000Y-42900000D02*
X23750000Y-53700000D01*
M02*
