G04 #@! TF.FileFunction,Copper,L2,Bot,Signal*
%FSLAX46Y46*%
G04 Gerber Fmt 4.6, Leading zero omitted, Abs format (unit mm)*
G04 Created by KiCad (PCBNEW 4.0.0-rc2-1-stable) date Friday, February 19, 2016 'amt' 09:39:17 am*
%MOMM*%
G01*
G04 APERTURE LIST*
%ADD10C,0.150000*%
%ADD11C,2.400000*%
%ADD12C,2.500000*%
%ADD13C,1.900000*%
%ADD14C,4.064000*%
%ADD15C,1.100000*%
%ADD16C,0.254000*%
G04 APERTURE END LIST*
D10*
D11*
X25971500Y-18542000D03*
D12*
X23431500Y-16002000D03*
X28511500Y-16002000D03*
X28511500Y-21082000D03*
X23431500Y-21082000D03*
D13*
X33591500Y-74422000D03*
X33591500Y-71882000D03*
X33591500Y-69342000D03*
X33591500Y-66802000D03*
X33591500Y-64262000D03*
X33591500Y-61722000D03*
X33591500Y-59182000D03*
X33591500Y-56642000D03*
X33591500Y-54102000D03*
X33591500Y-51562000D03*
X33591500Y-49022000D03*
X33591500Y-46482000D03*
X33591500Y-43942000D03*
X18351500Y-43942000D03*
X18351500Y-46482000D03*
X18351500Y-49022000D03*
X18351500Y-51562000D03*
X18351500Y-54102000D03*
X18351500Y-56642000D03*
X18351500Y-59182000D03*
X18351500Y-61722000D03*
X18351500Y-64262000D03*
X18351500Y-66802000D03*
X18351500Y-69342000D03*
X18351500Y-71882000D03*
X18351500Y-74422000D03*
X18351500Y-76962000D03*
X33591500Y-76962000D03*
D14*
X26035000Y-54610000D03*
X26035000Y-72390000D03*
D15*
X29781500Y-48387000D03*
X32321500Y-34417000D03*
X26479500Y-34417000D03*
X28257500Y-31623000D03*
X22225000Y-32385000D03*
X22034500Y-38290500D03*
D16*
X29781500Y-36957000D02*
X29781500Y-48387000D01*
X32321500Y-34417000D02*
X29781500Y-36957000D01*
X26479500Y-33401000D02*
X26479500Y-34417000D01*
X28257500Y-31623000D02*
X26479500Y-33401000D01*
X22034500Y-32575500D02*
X22034500Y-38290500D01*
X22225000Y-32385000D02*
X22034500Y-32575500D01*
X22034500Y-38290500D02*
X22034500Y-68199000D01*
X22034500Y-68199000D02*
X18351500Y-71882000D01*
X22034500Y-38290500D02*
X22161500Y-38163500D01*
G36*
X22098178Y-14848286D02*
X21805377Y-14977533D01*
X21537112Y-15677806D01*
X21557250Y-16427435D01*
X21805377Y-17026467D01*
X22098180Y-17155715D01*
X23251895Y-16002000D01*
X23237753Y-15987858D01*
X23417358Y-15808253D01*
X23431500Y-15822395D01*
X23445643Y-15808253D01*
X23625248Y-15987858D01*
X23611105Y-16002000D01*
X23625248Y-16016143D01*
X23445643Y-16195748D01*
X23431500Y-16181605D01*
X22277785Y-17335320D01*
X22407033Y-17628123D01*
X23107306Y-17896388D01*
X23856935Y-17876250D01*
X24344976Y-17674097D01*
X24136819Y-18175395D01*
X24136182Y-18905403D01*
X24346269Y-19413853D01*
X23755694Y-19187612D01*
X23006065Y-19207750D01*
X22407033Y-19455877D01*
X22277785Y-19748680D01*
X23431500Y-20902395D01*
X23445643Y-20888253D01*
X23625248Y-21067858D01*
X23611105Y-21082000D01*
X24764820Y-22235715D01*
X25057623Y-22106467D01*
X25325888Y-21406194D01*
X25305750Y-20656565D01*
X25103597Y-20168524D01*
X25604895Y-20376681D01*
X26334903Y-20377318D01*
X26843353Y-20167231D01*
X26617112Y-20757806D01*
X26637250Y-21507435D01*
X26885377Y-22106467D01*
X27178180Y-22235715D01*
X28331895Y-21082000D01*
X28691105Y-21082000D01*
X29844820Y-22235715D01*
X30137623Y-22106467D01*
X30405888Y-21406194D01*
X30385750Y-20656565D01*
X30137623Y-20057533D01*
X29844820Y-19928285D01*
X28691105Y-21082000D01*
X28331895Y-21082000D01*
X28317753Y-21067858D01*
X28497358Y-20888253D01*
X28511500Y-20902395D01*
X29665215Y-19748680D01*
X29535967Y-19455877D01*
X28835694Y-19187612D01*
X28086065Y-19207750D01*
X27598024Y-19409903D01*
X27806181Y-18908605D01*
X27806818Y-18178597D01*
X27596731Y-17670147D01*
X28187306Y-17896388D01*
X28936935Y-17876250D01*
X29535967Y-17628123D01*
X29665215Y-17335320D01*
X28511500Y-16181605D01*
X28497358Y-16195748D01*
X28317753Y-16016143D01*
X28331895Y-16002000D01*
X28317753Y-15987858D01*
X28497358Y-15808253D01*
X28511500Y-15822395D01*
X28525643Y-15808253D01*
X28705248Y-15987858D01*
X28691105Y-16002000D01*
X29844820Y-17155715D01*
X30137623Y-17026467D01*
X30405888Y-16326194D01*
X30385750Y-15576565D01*
X30137623Y-14977533D01*
X29844822Y-14848286D01*
X29897608Y-14795500D01*
X35369500Y-14795500D01*
X35369500Y-77914500D01*
X34723608Y-77914500D01*
X34707852Y-77898744D01*
X34969519Y-77806208D01*
X35187688Y-77214602D01*
X35162852Y-76584539D01*
X34969519Y-76117792D01*
X34707850Y-76025255D01*
X33771105Y-76962000D01*
X33785248Y-76976143D01*
X33605643Y-77155748D01*
X33591500Y-77141605D01*
X33577358Y-77155748D01*
X33397753Y-76976143D01*
X33411895Y-76962000D01*
X32475150Y-76025255D01*
X32213481Y-76117792D01*
X31995312Y-76709398D01*
X32020148Y-77339461D01*
X32213481Y-77806208D01*
X32475148Y-77898744D01*
X32459392Y-77914500D01*
X19640823Y-77914500D01*
X19694414Y-77861003D01*
X19936224Y-77278659D01*
X19936775Y-76648107D01*
X19695981Y-76065343D01*
X19323029Y-75691739D01*
X19694414Y-75321003D01*
X19936224Y-74738659D01*
X19936775Y-74108107D01*
X19695981Y-73525343D01*
X19323029Y-73151739D01*
X19557004Y-72918172D01*
X23367538Y-72918172D01*
X23772709Y-73898761D01*
X24522293Y-74649655D01*
X25502173Y-75056536D01*
X26563172Y-75057462D01*
X27543761Y-74652291D01*
X28294655Y-73902707D01*
X28701536Y-72922827D01*
X28702462Y-71861828D01*
X28297291Y-70881239D01*
X27547707Y-70130345D01*
X26567827Y-69723464D01*
X25506828Y-69722538D01*
X24526239Y-70127709D01*
X23775345Y-70877293D01*
X23368464Y-71857173D01*
X23367538Y-72918172D01*
X19557004Y-72918172D01*
X19694414Y-72781003D01*
X19936224Y-72198659D01*
X19936775Y-71568107D01*
X19880125Y-71431005D01*
X22573316Y-68737815D01*
X22738497Y-68490604D01*
X22796500Y-68199000D01*
X22796500Y-55138172D01*
X23367538Y-55138172D01*
X23772709Y-56118761D01*
X24522293Y-56869655D01*
X25502173Y-57276536D01*
X26563172Y-57277462D01*
X27543761Y-56872291D01*
X28294655Y-56122707D01*
X28701536Y-55142827D01*
X28702462Y-54081828D01*
X28297291Y-53101239D01*
X27547707Y-52350345D01*
X26567827Y-51943464D01*
X25506828Y-51942538D01*
X24526239Y-52347709D01*
X23775345Y-53097293D01*
X23368464Y-54077173D01*
X23367538Y-55138172D01*
X22796500Y-55138172D01*
X22796500Y-44255893D01*
X32006225Y-44255893D01*
X32247019Y-44838657D01*
X32619971Y-45212261D01*
X32248586Y-45582997D01*
X32006776Y-46165341D01*
X32006225Y-46795893D01*
X32247019Y-47378657D01*
X32619971Y-47752261D01*
X32248586Y-48122997D01*
X32006776Y-48705341D01*
X32006225Y-49335893D01*
X32247019Y-49918657D01*
X32619971Y-50292261D01*
X32248586Y-50662997D01*
X32006776Y-51245341D01*
X32006225Y-51875893D01*
X32247019Y-52458657D01*
X32619971Y-52832261D01*
X32248586Y-53202997D01*
X32006776Y-53785341D01*
X32006225Y-54415893D01*
X32247019Y-54998657D01*
X32619971Y-55372261D01*
X32248586Y-55742997D01*
X32006776Y-56325341D01*
X32006225Y-56955893D01*
X32247019Y-57538657D01*
X32619971Y-57912261D01*
X32248586Y-58282997D01*
X32006776Y-58865341D01*
X32006225Y-59495893D01*
X32247019Y-60078657D01*
X32619971Y-60452261D01*
X32248586Y-60822997D01*
X32006776Y-61405341D01*
X32006225Y-62035893D01*
X32247019Y-62618657D01*
X32619971Y-62992261D01*
X32248586Y-63362997D01*
X32006776Y-63945341D01*
X32006225Y-64575893D01*
X32247019Y-65158657D01*
X32619971Y-65532261D01*
X32248586Y-65902997D01*
X32006776Y-66485341D01*
X32006225Y-67115893D01*
X32247019Y-67698657D01*
X32619971Y-68072261D01*
X32248586Y-68442997D01*
X32006776Y-69025341D01*
X32006225Y-69655893D01*
X32247019Y-70238657D01*
X32619971Y-70612261D01*
X32248586Y-70982997D01*
X32006776Y-71565341D01*
X32006225Y-72195893D01*
X32247019Y-72778657D01*
X32619971Y-73152261D01*
X32248586Y-73522997D01*
X32006776Y-74105341D01*
X32006225Y-74735893D01*
X32247019Y-75318657D01*
X32685711Y-75758116D01*
X32654755Y-75845650D01*
X33591500Y-76782395D01*
X34528245Y-75845650D01*
X34497093Y-75757561D01*
X34934414Y-75321003D01*
X35176224Y-74738659D01*
X35176775Y-74108107D01*
X34935981Y-73525343D01*
X34563029Y-73151739D01*
X34934414Y-72781003D01*
X35176224Y-72198659D01*
X35176775Y-71568107D01*
X34935981Y-70985343D01*
X34563029Y-70611739D01*
X34934414Y-70241003D01*
X35176224Y-69658659D01*
X35176775Y-69028107D01*
X34935981Y-68445343D01*
X34563029Y-68071739D01*
X34934414Y-67701003D01*
X35176224Y-67118659D01*
X35176775Y-66488107D01*
X34935981Y-65905343D01*
X34563029Y-65531739D01*
X34934414Y-65161003D01*
X35176224Y-64578659D01*
X35176775Y-63948107D01*
X34935981Y-63365343D01*
X34563029Y-62991739D01*
X34934414Y-62621003D01*
X35176224Y-62038659D01*
X35176775Y-61408107D01*
X34935981Y-60825343D01*
X34563029Y-60451739D01*
X34934414Y-60081003D01*
X35176224Y-59498659D01*
X35176775Y-58868107D01*
X34935981Y-58285343D01*
X34563029Y-57911739D01*
X34934414Y-57541003D01*
X35176224Y-56958659D01*
X35176775Y-56328107D01*
X34935981Y-55745343D01*
X34563029Y-55371739D01*
X34934414Y-55001003D01*
X35176224Y-54418659D01*
X35176775Y-53788107D01*
X34935981Y-53205343D01*
X34563029Y-52831739D01*
X34934414Y-52461003D01*
X35176224Y-51878659D01*
X35176775Y-51248107D01*
X34935981Y-50665343D01*
X34563029Y-50291739D01*
X34934414Y-49921003D01*
X35176224Y-49338659D01*
X35176775Y-48708107D01*
X34935981Y-48125343D01*
X34563029Y-47751739D01*
X34934414Y-47381003D01*
X35176224Y-46798659D01*
X35176775Y-46168107D01*
X34935981Y-45585343D01*
X34563029Y-45211739D01*
X34934414Y-44841003D01*
X35176224Y-44258659D01*
X35176775Y-43628107D01*
X34935981Y-43045343D01*
X34490503Y-42599086D01*
X33908159Y-42357276D01*
X33277607Y-42356725D01*
X32694843Y-42597519D01*
X32248586Y-43042997D01*
X32006776Y-43625341D01*
X32006225Y-44255893D01*
X22796500Y-44255893D01*
X22796500Y-39204212D01*
X23038509Y-38962625D01*
X23219294Y-38527245D01*
X23219706Y-38055823D01*
X23039680Y-37620128D01*
X22796500Y-37376523D01*
X22796500Y-34651677D01*
X25294294Y-34651677D01*
X25474320Y-35087372D01*
X25807375Y-35421009D01*
X26242755Y-35601794D01*
X26714177Y-35602206D01*
X27149872Y-35422180D01*
X27483509Y-35089125D01*
X27664294Y-34653745D01*
X27664706Y-34182323D01*
X27484680Y-33746628D01*
X27348210Y-33609920D01*
X28150223Y-32807907D01*
X28492177Y-32808206D01*
X28927872Y-32628180D01*
X29261509Y-32295125D01*
X29442294Y-31859745D01*
X29442706Y-31388323D01*
X29262680Y-30952628D01*
X28929625Y-30618991D01*
X28494245Y-30438206D01*
X28022823Y-30437794D01*
X27587128Y-30617820D01*
X27253491Y-30950875D01*
X27072706Y-31386255D01*
X27072405Y-31730464D01*
X25940685Y-32862185D01*
X25775504Y-33109395D01*
X25717500Y-33401000D01*
X25717500Y-33503288D01*
X25475491Y-33744875D01*
X25294706Y-34180255D01*
X25294294Y-34651677D01*
X22796500Y-34651677D01*
X22796500Y-33431033D01*
X22895372Y-33390180D01*
X23229009Y-33057125D01*
X23409794Y-32621745D01*
X23410206Y-32150323D01*
X23230180Y-31714628D01*
X22897125Y-31380991D01*
X22461745Y-31200206D01*
X21990323Y-31199794D01*
X21554628Y-31379820D01*
X21220991Y-31712875D01*
X21040206Y-32148255D01*
X21039794Y-32619677D01*
X21219820Y-33055372D01*
X21272500Y-33108144D01*
X21272500Y-37376788D01*
X21030491Y-37618375D01*
X20849706Y-38053755D01*
X20849294Y-38525177D01*
X21029320Y-38960872D01*
X21272500Y-39204477D01*
X21272500Y-67883369D01*
X19936608Y-69219261D01*
X19936775Y-69028107D01*
X19695981Y-68445343D01*
X19323029Y-68071739D01*
X19694414Y-67701003D01*
X19936224Y-67118659D01*
X19936775Y-66488107D01*
X19695981Y-65905343D01*
X19323029Y-65531739D01*
X19694414Y-65161003D01*
X19936224Y-64578659D01*
X19936775Y-63948107D01*
X19695981Y-63365343D01*
X19323029Y-62991739D01*
X19694414Y-62621003D01*
X19936224Y-62038659D01*
X19936775Y-61408107D01*
X19695981Y-60825343D01*
X19323029Y-60451739D01*
X19694414Y-60081003D01*
X19936224Y-59498659D01*
X19936775Y-58868107D01*
X19695981Y-58285343D01*
X19323029Y-57911739D01*
X19694414Y-57541003D01*
X19936224Y-56958659D01*
X19936775Y-56328107D01*
X19695981Y-55745343D01*
X19323029Y-55371739D01*
X19694414Y-55001003D01*
X19936224Y-54418659D01*
X19936775Y-53788107D01*
X19695981Y-53205343D01*
X19323029Y-52831739D01*
X19694414Y-52461003D01*
X19936224Y-51878659D01*
X19936775Y-51248107D01*
X19695981Y-50665343D01*
X19323029Y-50291739D01*
X19694414Y-49921003D01*
X19936224Y-49338659D01*
X19936775Y-48708107D01*
X19695981Y-48125343D01*
X19323029Y-47751739D01*
X19694414Y-47381003D01*
X19936224Y-46798659D01*
X19936775Y-46168107D01*
X19695981Y-45585343D01*
X19323029Y-45211739D01*
X19694414Y-44841003D01*
X19936224Y-44258659D01*
X19936775Y-43628107D01*
X19695981Y-43045343D01*
X19250503Y-42599086D01*
X18668159Y-42357276D01*
X18037607Y-42356725D01*
X17454843Y-42597519D01*
X17008586Y-43042997D01*
X16766776Y-43625341D01*
X16766225Y-44255893D01*
X17007019Y-44838657D01*
X17379971Y-45212261D01*
X17008586Y-45582997D01*
X16766776Y-46165341D01*
X16766225Y-46795893D01*
X17007019Y-47378657D01*
X17379971Y-47752261D01*
X17008586Y-48122997D01*
X16766776Y-48705341D01*
X16766225Y-49335893D01*
X17007019Y-49918657D01*
X17379971Y-50292261D01*
X17008586Y-50662997D01*
X16766776Y-51245341D01*
X16766225Y-51875893D01*
X17007019Y-52458657D01*
X17379971Y-52832261D01*
X17008586Y-53202997D01*
X16766776Y-53785341D01*
X16766225Y-54415893D01*
X17007019Y-54998657D01*
X17379971Y-55372261D01*
X17008586Y-55742997D01*
X16766776Y-56325341D01*
X16766225Y-56955893D01*
X17007019Y-57538657D01*
X17379971Y-57912261D01*
X17008586Y-58282997D01*
X16766776Y-58865341D01*
X16766225Y-59495893D01*
X17007019Y-60078657D01*
X17379971Y-60452261D01*
X17008586Y-60822997D01*
X16766776Y-61405341D01*
X16766225Y-62035893D01*
X17007019Y-62618657D01*
X17379971Y-62992261D01*
X17008586Y-63362997D01*
X16766776Y-63945341D01*
X16766225Y-64575893D01*
X17007019Y-65158657D01*
X17379971Y-65532261D01*
X17008586Y-65902997D01*
X16766776Y-66485341D01*
X16766225Y-67115893D01*
X17007019Y-67698657D01*
X17379971Y-68072261D01*
X17008586Y-68442997D01*
X16766776Y-69025341D01*
X16766225Y-69655893D01*
X17007019Y-70238657D01*
X17379971Y-70612261D01*
X17008586Y-70982997D01*
X16766776Y-71565341D01*
X16766225Y-72195893D01*
X17007019Y-72778657D01*
X17379971Y-73152261D01*
X17008586Y-73522997D01*
X16766776Y-74105341D01*
X16766225Y-74735893D01*
X17007019Y-75318657D01*
X17379971Y-75692261D01*
X17008586Y-76062997D01*
X16766776Y-76645341D01*
X16766225Y-77275893D01*
X17007019Y-77858657D01*
X17062765Y-77914500D01*
X16065500Y-77914500D01*
X16065500Y-22415320D01*
X22277785Y-22415320D01*
X22407033Y-22708123D01*
X23107306Y-22976388D01*
X23856935Y-22956250D01*
X24455967Y-22708123D01*
X24585215Y-22415320D01*
X27357785Y-22415320D01*
X27487033Y-22708123D01*
X28187306Y-22976388D01*
X28936935Y-22956250D01*
X29535967Y-22708123D01*
X29665215Y-22415320D01*
X28511500Y-21261605D01*
X27357785Y-22415320D01*
X24585215Y-22415320D01*
X23431500Y-21261605D01*
X22277785Y-22415320D01*
X16065500Y-22415320D01*
X16065500Y-20757806D01*
X21537112Y-20757806D01*
X21557250Y-21507435D01*
X21805377Y-22106467D01*
X22098180Y-22235715D01*
X23251895Y-21082000D01*
X22098180Y-19928285D01*
X21805377Y-20057533D01*
X21537112Y-20757806D01*
X16065500Y-20757806D01*
X16065500Y-14795500D01*
X22045392Y-14795500D01*
X22098178Y-14848286D01*
X22098178Y-14848286D01*
G37*
X22098178Y-14848286D02*
X21805377Y-14977533D01*
X21537112Y-15677806D01*
X21557250Y-16427435D01*
X21805377Y-17026467D01*
X22098180Y-17155715D01*
X23251895Y-16002000D01*
X23237753Y-15987858D01*
X23417358Y-15808253D01*
X23431500Y-15822395D01*
X23445643Y-15808253D01*
X23625248Y-15987858D01*
X23611105Y-16002000D01*
X23625248Y-16016143D01*
X23445643Y-16195748D01*
X23431500Y-16181605D01*
X22277785Y-17335320D01*
X22407033Y-17628123D01*
X23107306Y-17896388D01*
X23856935Y-17876250D01*
X24344976Y-17674097D01*
X24136819Y-18175395D01*
X24136182Y-18905403D01*
X24346269Y-19413853D01*
X23755694Y-19187612D01*
X23006065Y-19207750D01*
X22407033Y-19455877D01*
X22277785Y-19748680D01*
X23431500Y-20902395D01*
X23445643Y-20888253D01*
X23625248Y-21067858D01*
X23611105Y-21082000D01*
X24764820Y-22235715D01*
X25057623Y-22106467D01*
X25325888Y-21406194D01*
X25305750Y-20656565D01*
X25103597Y-20168524D01*
X25604895Y-20376681D01*
X26334903Y-20377318D01*
X26843353Y-20167231D01*
X26617112Y-20757806D01*
X26637250Y-21507435D01*
X26885377Y-22106467D01*
X27178180Y-22235715D01*
X28331895Y-21082000D01*
X28691105Y-21082000D01*
X29844820Y-22235715D01*
X30137623Y-22106467D01*
X30405888Y-21406194D01*
X30385750Y-20656565D01*
X30137623Y-20057533D01*
X29844820Y-19928285D01*
X28691105Y-21082000D01*
X28331895Y-21082000D01*
X28317753Y-21067858D01*
X28497358Y-20888253D01*
X28511500Y-20902395D01*
X29665215Y-19748680D01*
X29535967Y-19455877D01*
X28835694Y-19187612D01*
X28086065Y-19207750D01*
X27598024Y-19409903D01*
X27806181Y-18908605D01*
X27806818Y-18178597D01*
X27596731Y-17670147D01*
X28187306Y-17896388D01*
X28936935Y-17876250D01*
X29535967Y-17628123D01*
X29665215Y-17335320D01*
X28511500Y-16181605D01*
X28497358Y-16195748D01*
X28317753Y-16016143D01*
X28331895Y-16002000D01*
X28317753Y-15987858D01*
X28497358Y-15808253D01*
X28511500Y-15822395D01*
X28525643Y-15808253D01*
X28705248Y-15987858D01*
X28691105Y-16002000D01*
X29844820Y-17155715D01*
X30137623Y-17026467D01*
X30405888Y-16326194D01*
X30385750Y-15576565D01*
X30137623Y-14977533D01*
X29844822Y-14848286D01*
X29897608Y-14795500D01*
X35369500Y-14795500D01*
X35369500Y-77914500D01*
X34723608Y-77914500D01*
X34707852Y-77898744D01*
X34969519Y-77806208D01*
X35187688Y-77214602D01*
X35162852Y-76584539D01*
X34969519Y-76117792D01*
X34707850Y-76025255D01*
X33771105Y-76962000D01*
X33785248Y-76976143D01*
X33605643Y-77155748D01*
X33591500Y-77141605D01*
X33577358Y-77155748D01*
X33397753Y-76976143D01*
X33411895Y-76962000D01*
X32475150Y-76025255D01*
X32213481Y-76117792D01*
X31995312Y-76709398D01*
X32020148Y-77339461D01*
X32213481Y-77806208D01*
X32475148Y-77898744D01*
X32459392Y-77914500D01*
X19640823Y-77914500D01*
X19694414Y-77861003D01*
X19936224Y-77278659D01*
X19936775Y-76648107D01*
X19695981Y-76065343D01*
X19323029Y-75691739D01*
X19694414Y-75321003D01*
X19936224Y-74738659D01*
X19936775Y-74108107D01*
X19695981Y-73525343D01*
X19323029Y-73151739D01*
X19557004Y-72918172D01*
X23367538Y-72918172D01*
X23772709Y-73898761D01*
X24522293Y-74649655D01*
X25502173Y-75056536D01*
X26563172Y-75057462D01*
X27543761Y-74652291D01*
X28294655Y-73902707D01*
X28701536Y-72922827D01*
X28702462Y-71861828D01*
X28297291Y-70881239D01*
X27547707Y-70130345D01*
X26567827Y-69723464D01*
X25506828Y-69722538D01*
X24526239Y-70127709D01*
X23775345Y-70877293D01*
X23368464Y-71857173D01*
X23367538Y-72918172D01*
X19557004Y-72918172D01*
X19694414Y-72781003D01*
X19936224Y-72198659D01*
X19936775Y-71568107D01*
X19880125Y-71431005D01*
X22573316Y-68737815D01*
X22738497Y-68490604D01*
X22796500Y-68199000D01*
X22796500Y-55138172D01*
X23367538Y-55138172D01*
X23772709Y-56118761D01*
X24522293Y-56869655D01*
X25502173Y-57276536D01*
X26563172Y-57277462D01*
X27543761Y-56872291D01*
X28294655Y-56122707D01*
X28701536Y-55142827D01*
X28702462Y-54081828D01*
X28297291Y-53101239D01*
X27547707Y-52350345D01*
X26567827Y-51943464D01*
X25506828Y-51942538D01*
X24526239Y-52347709D01*
X23775345Y-53097293D01*
X23368464Y-54077173D01*
X23367538Y-55138172D01*
X22796500Y-55138172D01*
X22796500Y-44255893D01*
X32006225Y-44255893D01*
X32247019Y-44838657D01*
X32619971Y-45212261D01*
X32248586Y-45582997D01*
X32006776Y-46165341D01*
X32006225Y-46795893D01*
X32247019Y-47378657D01*
X32619971Y-47752261D01*
X32248586Y-48122997D01*
X32006776Y-48705341D01*
X32006225Y-49335893D01*
X32247019Y-49918657D01*
X32619971Y-50292261D01*
X32248586Y-50662997D01*
X32006776Y-51245341D01*
X32006225Y-51875893D01*
X32247019Y-52458657D01*
X32619971Y-52832261D01*
X32248586Y-53202997D01*
X32006776Y-53785341D01*
X32006225Y-54415893D01*
X32247019Y-54998657D01*
X32619971Y-55372261D01*
X32248586Y-55742997D01*
X32006776Y-56325341D01*
X32006225Y-56955893D01*
X32247019Y-57538657D01*
X32619971Y-57912261D01*
X32248586Y-58282997D01*
X32006776Y-58865341D01*
X32006225Y-59495893D01*
X32247019Y-60078657D01*
X32619971Y-60452261D01*
X32248586Y-60822997D01*
X32006776Y-61405341D01*
X32006225Y-62035893D01*
X32247019Y-62618657D01*
X32619971Y-62992261D01*
X32248586Y-63362997D01*
X32006776Y-63945341D01*
X32006225Y-64575893D01*
X32247019Y-65158657D01*
X32619971Y-65532261D01*
X32248586Y-65902997D01*
X32006776Y-66485341D01*
X32006225Y-67115893D01*
X32247019Y-67698657D01*
X32619971Y-68072261D01*
X32248586Y-68442997D01*
X32006776Y-69025341D01*
X32006225Y-69655893D01*
X32247019Y-70238657D01*
X32619971Y-70612261D01*
X32248586Y-70982997D01*
X32006776Y-71565341D01*
X32006225Y-72195893D01*
X32247019Y-72778657D01*
X32619971Y-73152261D01*
X32248586Y-73522997D01*
X32006776Y-74105341D01*
X32006225Y-74735893D01*
X32247019Y-75318657D01*
X32685711Y-75758116D01*
X32654755Y-75845650D01*
X33591500Y-76782395D01*
X34528245Y-75845650D01*
X34497093Y-75757561D01*
X34934414Y-75321003D01*
X35176224Y-74738659D01*
X35176775Y-74108107D01*
X34935981Y-73525343D01*
X34563029Y-73151739D01*
X34934414Y-72781003D01*
X35176224Y-72198659D01*
X35176775Y-71568107D01*
X34935981Y-70985343D01*
X34563029Y-70611739D01*
X34934414Y-70241003D01*
X35176224Y-69658659D01*
X35176775Y-69028107D01*
X34935981Y-68445343D01*
X34563029Y-68071739D01*
X34934414Y-67701003D01*
X35176224Y-67118659D01*
X35176775Y-66488107D01*
X34935981Y-65905343D01*
X34563029Y-65531739D01*
X34934414Y-65161003D01*
X35176224Y-64578659D01*
X35176775Y-63948107D01*
X34935981Y-63365343D01*
X34563029Y-62991739D01*
X34934414Y-62621003D01*
X35176224Y-62038659D01*
X35176775Y-61408107D01*
X34935981Y-60825343D01*
X34563029Y-60451739D01*
X34934414Y-60081003D01*
X35176224Y-59498659D01*
X35176775Y-58868107D01*
X34935981Y-58285343D01*
X34563029Y-57911739D01*
X34934414Y-57541003D01*
X35176224Y-56958659D01*
X35176775Y-56328107D01*
X34935981Y-55745343D01*
X34563029Y-55371739D01*
X34934414Y-55001003D01*
X35176224Y-54418659D01*
X35176775Y-53788107D01*
X34935981Y-53205343D01*
X34563029Y-52831739D01*
X34934414Y-52461003D01*
X35176224Y-51878659D01*
X35176775Y-51248107D01*
X34935981Y-50665343D01*
X34563029Y-50291739D01*
X34934414Y-49921003D01*
X35176224Y-49338659D01*
X35176775Y-48708107D01*
X34935981Y-48125343D01*
X34563029Y-47751739D01*
X34934414Y-47381003D01*
X35176224Y-46798659D01*
X35176775Y-46168107D01*
X34935981Y-45585343D01*
X34563029Y-45211739D01*
X34934414Y-44841003D01*
X35176224Y-44258659D01*
X35176775Y-43628107D01*
X34935981Y-43045343D01*
X34490503Y-42599086D01*
X33908159Y-42357276D01*
X33277607Y-42356725D01*
X32694843Y-42597519D01*
X32248586Y-43042997D01*
X32006776Y-43625341D01*
X32006225Y-44255893D01*
X22796500Y-44255893D01*
X22796500Y-39204212D01*
X23038509Y-38962625D01*
X23219294Y-38527245D01*
X23219706Y-38055823D01*
X23039680Y-37620128D01*
X22796500Y-37376523D01*
X22796500Y-34651677D01*
X25294294Y-34651677D01*
X25474320Y-35087372D01*
X25807375Y-35421009D01*
X26242755Y-35601794D01*
X26714177Y-35602206D01*
X27149872Y-35422180D01*
X27483509Y-35089125D01*
X27664294Y-34653745D01*
X27664706Y-34182323D01*
X27484680Y-33746628D01*
X27348210Y-33609920D01*
X28150223Y-32807907D01*
X28492177Y-32808206D01*
X28927872Y-32628180D01*
X29261509Y-32295125D01*
X29442294Y-31859745D01*
X29442706Y-31388323D01*
X29262680Y-30952628D01*
X28929625Y-30618991D01*
X28494245Y-30438206D01*
X28022823Y-30437794D01*
X27587128Y-30617820D01*
X27253491Y-30950875D01*
X27072706Y-31386255D01*
X27072405Y-31730464D01*
X25940685Y-32862185D01*
X25775504Y-33109395D01*
X25717500Y-33401000D01*
X25717500Y-33503288D01*
X25475491Y-33744875D01*
X25294706Y-34180255D01*
X25294294Y-34651677D01*
X22796500Y-34651677D01*
X22796500Y-33431033D01*
X22895372Y-33390180D01*
X23229009Y-33057125D01*
X23409794Y-32621745D01*
X23410206Y-32150323D01*
X23230180Y-31714628D01*
X22897125Y-31380991D01*
X22461745Y-31200206D01*
X21990323Y-31199794D01*
X21554628Y-31379820D01*
X21220991Y-31712875D01*
X21040206Y-32148255D01*
X21039794Y-32619677D01*
X21219820Y-33055372D01*
X21272500Y-33108144D01*
X21272500Y-37376788D01*
X21030491Y-37618375D01*
X20849706Y-38053755D01*
X20849294Y-38525177D01*
X21029320Y-38960872D01*
X21272500Y-39204477D01*
X21272500Y-67883369D01*
X19936608Y-69219261D01*
X19936775Y-69028107D01*
X19695981Y-68445343D01*
X19323029Y-68071739D01*
X19694414Y-67701003D01*
X19936224Y-67118659D01*
X19936775Y-66488107D01*
X19695981Y-65905343D01*
X19323029Y-65531739D01*
X19694414Y-65161003D01*
X19936224Y-64578659D01*
X19936775Y-63948107D01*
X19695981Y-63365343D01*
X19323029Y-62991739D01*
X19694414Y-62621003D01*
X19936224Y-62038659D01*
X19936775Y-61408107D01*
X19695981Y-60825343D01*
X19323029Y-60451739D01*
X19694414Y-60081003D01*
X19936224Y-59498659D01*
X19936775Y-58868107D01*
X19695981Y-58285343D01*
X19323029Y-57911739D01*
X19694414Y-57541003D01*
X19936224Y-56958659D01*
X19936775Y-56328107D01*
X19695981Y-55745343D01*
X19323029Y-55371739D01*
X19694414Y-55001003D01*
X19936224Y-54418659D01*
X19936775Y-53788107D01*
X19695981Y-53205343D01*
X19323029Y-52831739D01*
X19694414Y-52461003D01*
X19936224Y-51878659D01*
X19936775Y-51248107D01*
X19695981Y-50665343D01*
X19323029Y-50291739D01*
X19694414Y-49921003D01*
X19936224Y-49338659D01*
X19936775Y-48708107D01*
X19695981Y-48125343D01*
X19323029Y-47751739D01*
X19694414Y-47381003D01*
X19936224Y-46798659D01*
X19936775Y-46168107D01*
X19695981Y-45585343D01*
X19323029Y-45211739D01*
X19694414Y-44841003D01*
X19936224Y-44258659D01*
X19936775Y-43628107D01*
X19695981Y-43045343D01*
X19250503Y-42599086D01*
X18668159Y-42357276D01*
X18037607Y-42356725D01*
X17454843Y-42597519D01*
X17008586Y-43042997D01*
X16766776Y-43625341D01*
X16766225Y-44255893D01*
X17007019Y-44838657D01*
X17379971Y-45212261D01*
X17008586Y-45582997D01*
X16766776Y-46165341D01*
X16766225Y-46795893D01*
X17007019Y-47378657D01*
X17379971Y-47752261D01*
X17008586Y-48122997D01*
X16766776Y-48705341D01*
X16766225Y-49335893D01*
X17007019Y-49918657D01*
X17379971Y-50292261D01*
X17008586Y-50662997D01*
X16766776Y-51245341D01*
X16766225Y-51875893D01*
X17007019Y-52458657D01*
X17379971Y-52832261D01*
X17008586Y-53202997D01*
X16766776Y-53785341D01*
X16766225Y-54415893D01*
X17007019Y-54998657D01*
X17379971Y-55372261D01*
X17008586Y-55742997D01*
X16766776Y-56325341D01*
X16766225Y-56955893D01*
X17007019Y-57538657D01*
X17379971Y-57912261D01*
X17008586Y-58282997D01*
X16766776Y-58865341D01*
X16766225Y-59495893D01*
X17007019Y-60078657D01*
X17379971Y-60452261D01*
X17008586Y-60822997D01*
X16766776Y-61405341D01*
X16766225Y-62035893D01*
X17007019Y-62618657D01*
X17379971Y-62992261D01*
X17008586Y-63362997D01*
X16766776Y-63945341D01*
X16766225Y-64575893D01*
X17007019Y-65158657D01*
X17379971Y-65532261D01*
X17008586Y-65902997D01*
X16766776Y-66485341D01*
X16766225Y-67115893D01*
X17007019Y-67698657D01*
X17379971Y-68072261D01*
X17008586Y-68442997D01*
X16766776Y-69025341D01*
X16766225Y-69655893D01*
X17007019Y-70238657D01*
X17379971Y-70612261D01*
X17008586Y-70982997D01*
X16766776Y-71565341D01*
X16766225Y-72195893D01*
X17007019Y-72778657D01*
X17379971Y-73152261D01*
X17008586Y-73522997D01*
X16766776Y-74105341D01*
X16766225Y-74735893D01*
X17007019Y-75318657D01*
X17379971Y-75692261D01*
X17008586Y-76062997D01*
X16766776Y-76645341D01*
X16766225Y-77275893D01*
X17007019Y-77858657D01*
X17062765Y-77914500D01*
X16065500Y-77914500D01*
X16065500Y-22415320D01*
X22277785Y-22415320D01*
X22407033Y-22708123D01*
X23107306Y-22976388D01*
X23856935Y-22956250D01*
X24455967Y-22708123D01*
X24585215Y-22415320D01*
X27357785Y-22415320D01*
X27487033Y-22708123D01*
X28187306Y-22976388D01*
X28936935Y-22956250D01*
X29535967Y-22708123D01*
X29665215Y-22415320D01*
X28511500Y-21261605D01*
X27357785Y-22415320D01*
X24585215Y-22415320D01*
X23431500Y-21261605D01*
X22277785Y-22415320D01*
X16065500Y-22415320D01*
X16065500Y-20757806D01*
X21537112Y-20757806D01*
X21557250Y-21507435D01*
X21805377Y-22106467D01*
X22098180Y-22235715D01*
X23251895Y-21082000D01*
X22098180Y-19928285D01*
X21805377Y-20057533D01*
X21537112Y-20757806D01*
X16065500Y-20757806D01*
X16065500Y-14795500D01*
X22045392Y-14795500D01*
X22098178Y-14848286D01*
M02*
