G04 #@! TF.FileFunction,Paste,Top*
%FSLAX46Y46*%
G04 Gerber Fmt 4.6, Leading zero omitted, Abs format (unit mm)*
G04 Created by KiCad (PCBNEW 4.0.1-stable) date 4/13/2016 1:24:27 PM*
%MOMM*%
G01*
G04 APERTURE LIST*
%ADD10C,0.150000*%
%ADD11R,1.000000X1.600000*%
%ADD12R,0.900000X1.700000*%
%ADD13R,1.600000X1.000000*%
%ADD14R,1.143000X0.508000*%
%ADD15R,1.700000X0.900000*%
G04 APERTURE END LIST*
D10*
D11*
X17486500Y-24257000D03*
X20486500Y-24257000D03*
D12*
X20500000Y-39878000D03*
X17600000Y-39878000D03*
X20500000Y-37338000D03*
X17600000Y-37338000D03*
X20436500Y-29337000D03*
X17536500Y-29337000D03*
D11*
X20677000Y-34798000D03*
X17677000Y-34798000D03*
X20486500Y-26797000D03*
X17486500Y-26797000D03*
X31281500Y-26797000D03*
X28281500Y-26797000D03*
D13*
X33591500Y-24027000D03*
X33591500Y-27027000D03*
D11*
X30186500Y-40132000D03*
X33186500Y-40132000D03*
X25741500Y-40132000D03*
X28741500Y-40132000D03*
D14*
X23939500Y-29972000D03*
X23939500Y-31242000D03*
X23939500Y-32512000D03*
X23939500Y-33782000D03*
X23939500Y-35052000D03*
X23939500Y-36322000D03*
X23939500Y-37592000D03*
X30289500Y-37592000D03*
X30289500Y-36322000D03*
X30289500Y-33782000D03*
X30289500Y-32512000D03*
X30289500Y-31242000D03*
X30289500Y-29972000D03*
X30289500Y-35052000D03*
D12*
X28331500Y-24257000D03*
X31231500Y-24257000D03*
D15*
X32956500Y-32967000D03*
X32956500Y-35867000D03*
X24066500Y-27612000D03*
X24066500Y-24712000D03*
X33591500Y-28522000D03*
X33591500Y-31422000D03*
D11*
X20677000Y-32385000D03*
X17677000Y-32385000D03*
M02*
